<svg xmlns="http://www.w3.org/2000/svg" width="412.0246276855469" height="274.1487121582031" viewBox="-45.44929122924805 -32.01231384277344 412.0246276855469 274.1487121582031"><title>Neo4j Graph Visualization</title><desc>Created using Neo4j (http://www.neo4j.com/)</desc><g class="layer relationships"><g class="relationship" transform="translate(-16.449290737970813 108.74500775575451) rotate(435.6552539946008)"><path class="outline" fill="#A5ABB6" stroke="none" d="M 21.40063509461097,12.933012701892217 L 21.90063509461097,12.06698729810778 A 60.24652884702016 60.24652884702016 0 0 0 27.63965558865045,14.983276898058953 L 27.234914528939143,15.897708237517406 A 61.24652884702016 61.24652884702016 0 0 1 21.40063509461097,12.933012701892217 Z M 73.32469681863392,17.315070807527746 L 72.9769089896499,16.37749754318486 A 60.24652884702016 60.24652884702016 0 0 0 78.88428019944048,13.819360202945653 L 77.54675680039831,11.134023881920912 L 85.37298551500524,11.146028325351391 L 80.66764473149671,17.39980863097864 L 79.33012133245454,14.714472309953901 A 61.24652884702016 61.24652884702016 0 0 1 73.32469681863392,17.315070807527746"/><text text-anchor="middle" pointer-events="none" font-size="8px" fill="#000000" x="50.15669232858229" y="23.609788086503443" font-family="sans-serif">DIRECTED</text></g><g class="relationship" transform="translate(-16.449290737970813 108.74500775575451) rotate(435.6552539946008)"><path class="outline" fill="#A5ABB6" stroke="none" d="M 25 0.5 L 32.48867534510572 0.5 L 32.48867534510572 -0.5 L 25 -0.5 Z M 68.26211284510572 0.5 L 75.75078819021144 0.5 L 75.75078819021144 3.5 L 82.75078819021144 0 L 75.75078819021144 -3.5 L 75.75078819021144 -0.5 L 68.26211284510572 -0.5 Z"/><text text-anchor="middle" pointer-events="none" font-size="8px" fill="#000000" x="50.37539409510572" y="3" font-family="sans-serif">WROTE</text></g><g class="relationship" transform="translate(-16.449290737970813 108.74500775575451) rotate(435.6552539946008)"><path class="outline" fill="#A5ABB6" stroke="none" d="M 21.40063509461097,-12.933012701892217 L 21.90063509461097,-12.06698729810778 A 60.24652884702016 60.24652884702016 0 0 1 25.44234261000491,-13.957340569406142 L 25.00112952409231,-14.854742938925796 A 61.24652884702016 61.24652884702016 0 0 0 21.40063509461097,-12.933012701892217 Z M 75.61834720707408,-16.41133414369623 L 75.233109902477,-15.488516599895298 A 60.24652884702016 60.24652884702016 0 0 1 78.88428019944048,-13.819360202945653 L 77.54675680039831,-11.134023881920912 L 85.37298551500524,-11.146028325351391 L 80.66764473149671,-17.39980863097864 L 79.33012133245454,-14.714472309953901 A 61.24652884702016 61.24652884702016 0 0 0 75.61834720707408,-16.41133414369623"/><text text-anchor="middle" pointer-events="none" font-size="8px" fill="#000000" x="50.1566923285823" y="-17.609788086503443" font-family="sans-serif">PRODUCED</text></g><g class="relationship" transform="translate(174.01561523563393 31.45140628189244) rotate(452.04448206893676)"><path class="outline" fill="#A5ABB6" stroke="none" d="M 21.40063509461097,12.933012701892217 L 21.90063509461097,12.06698729810778 A 59.302790635548654 59.302790635548654 0 0 0 32.3305620480118,16.810566493347288 L 32.00643786838421,17.756581036671406 A 60.302790635548654 60.302790635548654 0 0 1 21.40063509461097,12.933012701892217 Z M 67.52647841649411,18.85772554582384 L 67.26157445706289,17.89345074459876 A 59.302790635548654 59.302790635548654 0 0 0 77.96529923399794,13.805028587529856 L 76.62910905448659,11.119028623982311 L 84.45533084552744,11.134918162594621 L 79.74688614001307,17.38636187225992 L 78.41069596050173,14.700361908712372 A 60.302790635548654 60.302790635548654 0 0 1 67.52647841649411,18.85772554582384"/><text text-anchor="middle" pointer-events="none" font-size="8px" fill="#000000" x="49.698994961834984" y="23.48333896955549" transform="rotate(180 49.698994961834984 20.48333896955549)" font-family="sans-serif">WROTE</text></g><g class="relationship" transform="translate(174.01561523563393 31.45140628189244) rotate(452.04448206893676)"><path class="outline" fill="#A5ABB6" stroke="none" d="M 25 0.5 L 25.58534756254516 0.5 L 25.58534756254516 -0.5 L 25 -0.5 Z M 74.25331631254517 0.5 L 74.83866387509032 0.5 L 74.83866387509032 3.5 L 81.83866387509032 0 L 74.83866387509032 -3.5 L 74.83866387509032 -0.5 L 74.25331631254517 -0.5 Z"/><text text-anchor="middle" pointer-events="none" font-size="8px" fill="#000000" x="49.91933193754516" y="3" transform="rotate(180 49.91933193754516 0)" font-family="sans-serif">PRODUC…</text></g><g class="relationship" transform="translate(174.01561523563393 31.45140628189244) rotate(452.04448206893676)"><path class="outline" fill="#A5ABB6" stroke="none" d="M 21.40063509461097,-12.933012701892217 L 21.90063509461097,-12.06698729810778 A 59.302790635548654 59.302790635548654 0 0 1 27.2064940494779,-14.784358510879265 L 26.795964694923146,-15.696205893421357 A 60.302790635548654 60.302790635548654 0 0 0 21.40063509461097,-12.933012701892217 Z M 72.854569558331,-17.12405279511252 L 72.50130996749893,-16.188527455271235 A 59.302790635548654 59.302790635548654 0 0 1 77.96529923399794,-13.805028587529856 L 76.62910905448659,-11.119028623982311 L 84.45533084552744,-11.134918162594621 L 79.74688614001307,-17.38636187225992 L 78.41069596050173,-14.700361908712372 A 60.302790635548654 60.302790635548654 0 0 0 72.854569558331,-17.12405279511252"/><text text-anchor="middle" pointer-events="none" font-size="8px" fill="#000000" x="49.69899496183496" y="-17.48333896955549" transform="rotate(180 49.69899496183496 -20.48333896955549)" font-family="sans-serif">DIRECTED</text></g></g><g class="layer nodes"><g class="node" transform="translate(174.01561523563393,31.45140628189244)"><circle class="outline" cx="0" cy="0" r="25" fill="#F79767" stroke="#f36924" stroke-width="2px"/><text text-anchor="middle" pointer-events="none" font-family="sans-serif" dy="1.5625" font-size="25" fill="#FFFFFF"/><text text-anchor="middle" pointer-events="none" font-family="sans-serif" dy="1.5625" font-size="25" fill="#FFFFFF"/><text text-anchor="middle" pointer-events="none" x="0" y="0" font-size="10px" fill="#FFFFFF" font-family="sans-serif"> Cameron</text><text text-anchor="middle" pointer-events="none" x="0" y="10" font-size="10px" fill="#FFFFFF" font-family="sans-serif"> Crowe</text></g><g class="node" transform="translate(337.57535491857476,131.11003401187298)"><circle class="outline" cx="0" cy="0" r="25" fill="#F79767" stroke="#f36924" stroke-width="2px"/><text text-anchor="middle" pointer-events="none" font-family="sans-serif" dy="1.5625" font-size="25" fill="#FFFFFF"/><text text-anchor="middle" pointer-events="none" font-family="sans-serif" dy="1.5625" font-size="25" fill="#FFFFFF"/><text text-anchor="middle" pointer-events="none" x="0" y="0" font-size="10px" fill="#FFFFFF" font-family="sans-serif"> Lilly</text><text text-anchor="middle" pointer-events="none" x="0" y="10" font-size="10px" fill="#FFFFFF" font-family="sans-serif"> Wacho…</text></g><g class="node" transform="translate(-11.062048230017638,-3.012312567105319)"><circle class="outline" cx="0" cy="0" r="25" fill="#F79767" stroke="#f36924" stroke-width="2px"/><text text-anchor="middle" pointer-events="none" font-family="sans-serif" dy="1.5625" font-size="25" fill="#FFFFFF"/><text text-anchor="middle" pointer-events="none" font-family="sans-serif" dy="1.5625" font-size="25" fill="#FFFFFF"/><text text-anchor="middle" pointer-events="none" x="0" y="0" font-size="10px" fill="#FFFFFF" font-family="sans-serif"> Lana</text><text text-anchor="middle" pointer-events="none" x="0" y="10" font-size="10px" fill="#FFFFFF" font-family="sans-serif"> Wacho…</text></g><g class="node" transform="translate(-16.449290737970813,108.74500775575451)"><circle class="outline" cx="0" cy="0" r="25" fill="#F79767" stroke="#f36924" stroke-width="2px"/><text text-anchor="middle" pointer-events="none" font-family="sans-serif" dy="1.5625" font-size="25" fill="#FFFFFF"/><text text-anchor="middle" pointer-events="none" font-family="sans-serif" dy="1.5625" font-size="25" fill="#FFFFFF"/><text text-anchor="middle" pointer-events="none" x="0" y="0" font-size="10px" fill="#FFFFFF" font-family="sans-serif"> Nancy</text><text text-anchor="middle" pointer-events="none" x="0" y="10" font-size="10px" fill="#FFFFFF" font-family="sans-serif"> Meyers</text></g><g class="node" transform="translate(10.24658173402682,213.13639987488781)"><circle class="outline" cx="0" cy="0" r="25" fill="#57C7E3" stroke="#23b3d7" stroke-width="2px"/><text text-anchor="middle" pointer-events="none" font-family="sans-serif" dy="1.5625" font-size="25" fill="#2A2C34"/><text text-anchor="middle" pointer-events="none" x="0" y="5" font-size="10px" fill="#2A2C34" font-family="sans-serif"> Somethi…</text></g><g class="node" transform="translate(170.2041061866025,138.22206000932675)"><circle class="outline" cx="0" cy="0" r="25" fill="#57C7E3" stroke="#23b3d7" stroke-width="2px"/><text text-anchor="middle" pointer-events="none" font-family="sans-serif" dy="1.5625" font-size="25" fill="#2A2C34"/><text text-anchor="middle" pointer-events="none" font-family="sans-serif" dy="1.5625" font-size="25" fill="#2A2C34"/><text text-anchor="middle" pointer-events="none" x="0" y="0" font-size="10px" fill="#2A2C34" font-family="sans-serif"> Jerry</text><text text-anchor="middle" pointer-events="none" x="0" y="10" font-size="10px" fill="#2A2C34" font-family="sans-serif"> Maguire</text></g></g></svg>