<svg xmlns="http://www.w3.org/2000/svg" width="289.8149719238281" height="265.2327880859375" viewBox="-45.67146682739258 -45.777915954589844 289.8149719238281 265.2327880859375"><title>Neo4j Graph Visualization</title><desc>Created using Neo4j (http://www.neo4j.com/)</desc><g class="layer relationships"><g class="relationship" transform="translate(170.6080826132347 190.45486134936337) rotate(232.02478755212098)"><path class="outline" fill="#A5ABB6" stroke="none" d="M 25 0.5 L 31.09379441545707 0.5 L 31.09379441545707 -0.5 L 25 -0.5 Z M 76.65629441545707 0.5 L 82.75008883091414 0.5 L 82.75008883091414 3.5 L 89.75008883091414 0 L 82.75008883091414 -3.5 L 82.75008883091414 -0.5 L 76.65629441545707 -0.5 Z"/><text text-anchor="middle" pointer-events="none" font-size="8px" fill="#000000" x="53.87504441545707" y="3" transform="rotate(180 53.87504441545707 0)" font-family="sans-serif">ACTED_IN</text></g><g class="relationship" transform="translate(215.14348981589944 124.976617529594) rotate(192.2388385171825)"><path class="outline" fill="#A5ABB6" stroke="none" d="M 25 0.5 L 32.62939115208886 0.5 L 32.62939115208886 -0.5 L 25 -0.5 Z M 78.19189115208886 0.5 L 85.82128230417771 0.5 L 85.82128230417771 3.5 L 92.82128230417771 0 L 85.82128230417771 -3.5 L 85.82128230417771 -0.5 L 78.19189115208886 -0.5 Z"/><text text-anchor="middle" pointer-events="none" font-size="8px" fill="#000000" x="55.41064115208886" y="3" transform="rotate(180 55.41064115208886 0)" font-family="sans-serif">ACTED_IN</text></g><g class="relationship" transform="translate(194.4440243240149 29.874702380811208) rotate(503.4058743987267)"><path class="outline" fill="#A5ABB6" stroke="none" d="M 25 0.5 L 37.42916217393943 0.5 L 37.42916217393943 -0.5 L 25 -0.5 Z M 73.20259967393943 0.5 L 85.63176184787886 0.5 L 85.63176184787886 3.5 L 92.63176184787886 0 L 85.63176184787886 -3.5 L 85.63176184787886 -0.5 L 73.20259967393943 -0.5 Z"/><text text-anchor="middle" pointer-events="none" font-size="8px" fill="#000000" x="55.31588092393943" y="3" transform="rotate(180 55.31588092393943 0)" font-family="sans-serif">WROTE</text></g><g class="relationship" transform="translate(105.0538494491545 -16.77791343000065) rotate(452.4780684489692)"><path class="outline" fill="#A5ABB6" stroke="none" d="M 25 0.5 L 37.05689287010283 0.5 L 37.05689287010283 -0.5 L 25 -0.5 Z M 72.83033037010283 0.5 L 84.88722324020566 0.5 L 84.88722324020566 3.5 L 91.88722324020566 0 L 84.88722324020566 -3.5 L 84.88722324020566 -0.5 L 72.83033037010283 -0.5 Z"/><text text-anchor="middle" pointer-events="none" font-size="8px" fill="#000000" x="54.94361162010283" y="3" transform="rotate(180 54.94361162010283 0)" font-family="sans-serif">WROTE</text></g><g class="relationship" transform="translate(18.87918340560696 17.233365263041062) rotate(405.57536671461725)"><path class="outline" fill="#A5ABB6" stroke="none" d="M 25 0.5 L 36.55916778048835 0.5 L 36.55916778048835 -0.5 L 25 -0.5 Z M 72.33260528048835 0.5 L 83.8917730609767 0.5 L 83.8917730609767 3.5 L 90.8917730609767 0 L 83.8917730609767 -3.5 L 83.8917730609767 -0.5 L 72.33260528048835 -0.5 Z"/><text text-anchor="middle" pointer-events="none" font-size="8px" fill="#000000" x="54.44588653048835" y="3" font-family="sans-serif">WROTE</text></g><g class="relationship" transform="translate(-16.671467291773258 99.04159713413206) rotate(360.47064914418564)"><path class="outline" fill="#A5ABB6" stroke="none" d="M 25 0.5 L 31.392389331987523 0.5 L 31.392389331987523 -0.5 L 25 -0.5 Z M 78.28301433198752 0.5 L 84.67540366397505 0.5 L 84.67540366397505 3.5 L 91.67540366397505 0 L 84.67540366397505 -3.5 L 84.67540366397505 -0.5 L 78.28301433198752 -0.5 Z"/><text text-anchor="middle" pointer-events="none" font-size="8px" fill="#000000" x="54.83770183198752" y="3" font-family="sans-serif">DIRECTED</text></g><g class="relationship" transform="translate(8.012931155781306 173.38642475632864) rotate(321.4174621349263)"><path class="outline" fill="#A5ABB6" stroke="none" d="M 25 0.5 L 32.555787358354074 0.5 L 32.555787358354074 -0.5 L 25 -0.5 Z M 78.11828735835408 0.5 L 85.67407471670815 0.5 L 85.67407471670815 3.5 L 92.67407471670815 0 L 85.67407471670815 -3.5 L 85.67407471670815 -0.5 L 78.11828735835408 -0.5 Z"/><text text-anchor="middle" pointer-events="none" font-size="8px" fill="#000000" x="55.337037358354074" y="3" font-family="sans-serif">ACTED_IN</text></g></g><g class="layer nodes"><g class="node" transform="translate(100,100.00000213005272)"><circle class="outline" cx="0" cy="0" r="25" fill="#57C7E3" stroke="#23b3d7" stroke-width="2px"/><text text-anchor="middle" pointer-events="none" font-family="sans-serif" dy="1.5625" font-size="25" fill="#2A2C34"/><text text-anchor="middle" pointer-events="none" font-family="sans-serif" dy="1.5625" font-size="25" fill="#2A2C34"/><text text-anchor="middle" pointer-events="none" font-family="sans-serif" dy="1.5625" font-size="25" fill="#2A2C34"/><text text-anchor="middle" pointer-events="none" x="0" y="-5" font-size="10px" fill="#2A2C34" font-family="sans-serif"> Captain</text><text text-anchor="middle" pointer-events="none" x="0" y="5" font-size="10px" fill="#2A2C34" font-family="sans-serif"> America:</text><text text-anchor="middle" pointer-events="none" x="0" y="15" font-size="10px" fill="#2A2C34" font-family="sans-serif"> The Fi…</text></g><g class="node" transform="translate(170.6080826132347,190.45486134936337)"><circle class="outline" cx="0" cy="0" r="25" fill="#F79767" stroke="#f36924" stroke-width="2px"/><text text-anchor="middle" pointer-events="none" font-family="sans-serif" dy="1.5625" font-size="25" fill="#FFFFFF"/><text text-anchor="middle" pointer-events="none" font-family="sans-serif" dy="1.5625" font-size="25" fill="#FFFFFF"/><text text-anchor="middle" pointer-events="none" x="0" y="0" font-size="10px" fill="#FFFFFF" font-family="sans-serif"> Chris</text><text text-anchor="middle" pointer-events="none" x="0" y="10" font-size="10px" fill="#FFFFFF" font-family="sans-serif"> Evans</text></g><g class="node" transform="translate(215.14348981589944,124.976617529594)"><circle class="outline" cx="0" cy="0" r="25" fill="#F79767" stroke="#f36924" stroke-width="2px"/><text text-anchor="middle" pointer-events="none" font-family="sans-serif" dy="1.5625" font-size="25" fill="#FFFFFF"/><text text-anchor="middle" pointer-events="none" font-family="sans-serif" dy="1.5625" font-size="25" fill="#FFFFFF"/><text text-anchor="middle" pointer-events="none" font-family="sans-serif" dy="1.5625" font-size="25" fill="#FFFFFF"/><text text-anchor="middle" pointer-events="none" x="0" y="-5" font-size="10px" fill="#FFFFFF" font-family="sans-serif"> Samuel</text><text text-anchor="middle" pointer-events="none" x="0" y="5" font-size="10px" fill="#FFFFFF" font-family="sans-serif"> L.</text><text text-anchor="middle" pointer-events="none" x="0" y="15" font-size="10px" fill="#FFFFFF" font-family="sans-serif"> Jackson</text></g><g class="node" transform="translate(194.4440243240149,29.874702380811208)"><circle class="outline" cx="0" cy="0" r="25" fill="#F79767" stroke="#f36924" stroke-width="2px"/><text text-anchor="middle" pointer-events="none" font-family="sans-serif" dy="1.5625" font-size="25" fill="#FFFFFF"/><text text-anchor="middle" pointer-events="none" x="0" y="5" font-size="10px" fill="#FFFFFF" font-family="sans-serif"> Christop…</text></g><g class="node" transform="translate(105.0538494491545,-16.77791343000065)"><circle class="outline" cx="0" cy="0" r="25" fill="#F79767" stroke="#f36924" stroke-width="2px"/><text text-anchor="middle" pointer-events="none" font-family="sans-serif" dy="1.5625" font-size="25" fill="#FFFFFF"/><text text-anchor="middle" pointer-events="none" font-family="sans-serif" dy="1.5625" font-size="25" fill="#FFFFFF"/><text text-anchor="middle" pointer-events="none" x="0" y="0" font-size="10px" fill="#FFFFFF" font-family="sans-serif"> Stephen</text><text text-anchor="middle" pointer-events="none" x="0" y="10" font-size="10px" fill="#FFFFFF" font-family="sans-serif"> McFeely</text></g><g class="node" transform="translate(18.87918340560696,17.233365263041062)"><circle class="outline" cx="0" cy="0" r="25" fill="#F79767" stroke="#f36924" stroke-width="2px"/><text text-anchor="middle" pointer-events="none" font-family="sans-serif" dy="1.5625" font-size="25" fill="#FFFFFF"/><text text-anchor="middle" pointer-events="none" font-family="sans-serif" dy="1.5625" font-size="25" fill="#FFFFFF"/><text text-anchor="middle" pointer-events="none" x="0" y="0" font-size="10px" fill="#FFFFFF" font-family="sans-serif"> Joe</text><text text-anchor="middle" pointer-events="none" x="0" y="10" font-size="10px" fill="#FFFFFF" font-family="sans-serif"> Simon</text></g><g class="node" transform="translate(-16.671467291773258,99.04159713413206)"><circle class="outline" cx="0" cy="0" r="25" fill="#F79767" stroke="#f36924" stroke-width="2px"/><text text-anchor="middle" pointer-events="none" font-family="sans-serif" dy="1.5625" font-size="25" fill="#FFFFFF"/><text text-anchor="middle" pointer-events="none" font-family="sans-serif" dy="1.5625" font-size="25" fill="#FFFFFF"/><text text-anchor="middle" pointer-events="none" x="0" y="0" font-size="10px" fill="#FFFFFF" font-family="sans-serif"> Joe</text><text text-anchor="middle" pointer-events="none" x="0" y="10" font-size="10px" fill="#FFFFFF" font-family="sans-serif"> Johnston</text></g><g class="node" transform="translate(8.012931155781306,173.38642475632864)"><circle class="outline" cx="0" cy="0" r="25" fill="#F79767" stroke="#f36924" stroke-width="2px"/><text text-anchor="middle" pointer-events="none" font-family="sans-serif" dy="1.5625" font-size="25" fill="#FFFFFF"/><text text-anchor="middle" pointer-events="none" font-family="sans-serif" dy="1.5625" font-size="25" fill="#FFFFFF"/><text text-anchor="middle" pointer-events="none" x="0" y="0" font-size="10px" fill="#FFFFFF" font-family="sans-serif"> Hugo</text><text text-anchor="middle" pointer-events="none" x="0" y="10" font-size="10px" fill="#FFFFFF" font-family="sans-serif"> Weaving</text></g></g></svg>