<svg xmlns="http://www.w3.org/2000/svg" width="713.832275390625" height="900.6641845703125" viewBox="-223.07510375976562 -329.1022033691406 713.832275390625 900.6641845703125"><title>Neo4j Graph Visualization</title><desc>Created using Neo4j (http://www.neo4j.com/)</desc><g class="layer relationships"><g class="relationship" transform="translate(-74.90720119797922 -33.237496137955894) rotate(297.0955256521779)"><path class="outline" fill="#A5ABB6" stroke="none" d="M 25 0.5 L 88.03663289849098 0.5 L 88.03663289849098 -0.5 L 25 -0.5 Z M 122.48194539849098 0.5 L 185.51857829698196 0.5 L 185.51857829698196 3.5 L 192.51857829698196 0 L 185.51857829698196 -3.5 L 185.51857829698196 -0.5 L 122.48194539849098 -0.5 Z"/><text text-anchor="middle" pointer-events="none" font-size="8px" fill="#000000" x="105.25928914849098" y="3" font-family="sans-serif">ORIGIN</text></g><g class="relationship" transform="translate(-74.90720119797922 -33.237496137955894) rotate(460.8269089208514)"><path class="outline" fill="#A5ABB6" stroke="none" d="M 25 0.5 L 93.98056735786803 0.5 L 93.98056735786803 -0.5 L 25 -0.5 Z M 153.16806735786804 0.5 L 222.14863471573605 0.5 L 222.14863471573605 3.5 L 229.14863471573605 0 L 222.14863471573605 -3.5 L 222.14863471573605 -0.5 L 153.16806735786804 -0.5 Z"/><text text-anchor="middle" pointer-events="none" font-size="8px" fill="#000000" x="123.57431735786803" y="3" transform="rotate(180 123.57431735786803 0)" font-family="sans-serif">DESTINATION</text></g><g class="relationship" transform="translate(-130.4444716699023 362.01429878024055) rotate(273.0648634596607)"><path class="outline" fill="#A5ABB6" stroke="none" d="M 25 0.5 L 52.195254526713654 0.5 L 52.195254526713654 -0.5 L 25 -0.5 Z M 86.64056702671365 0.5 L 113.83582155342731 0.5 L 113.83582155342731 3.5 L 120.83582155342731 0 L 113.83582155342731 -3.5 L 113.83582155342731 -0.5 L 86.64056702671365 -0.5 Z"/><text text-anchor="middle" pointer-events="none" font-size="8px" fill="#000000" x="69.41791077671365" y="3" font-family="sans-serif">ORIGIN</text></g><g class="relationship" transform="translate(-130.4444716699023 362.01429878024055) rotate(345.5288493056481)"><path class="outline" fill="#A5ABB6" stroke="none" d="M 25 0.5 L 34.945455659897476 0.5 L 34.945455659897476 -0.5 L 25 -0.5 Z M 94.13295565989748 0.5 L 104.07841131979495 0.5 L 104.07841131979495 3.5 L 111.07841131979495 0 L 104.07841131979495 -3.5 L 104.07841131979495 -0.5 L 94.13295565989748 -0.5 Z"/><text text-anchor="middle" pointer-events="none" font-size="8px" fill="#000000" x="64.53920565989748" y="3" font-family="sans-serif">DESTINATION</text></g><g class="relationship" transform="translate(137.70048740073202 425.0334430639325) rotate(215.4282318701766)"><path class="outline" fill="#A5ABB6" stroke="none" d="M 25 0.5 L 50.59350692354015 0.5 L 50.59350692354015 -0.5 L 25 -0.5 Z M 109.78100692354015 0.5 L 135.3745138470803 0.5 L 135.3745138470803 3.5 L 142.3745138470803 0 L 135.3745138470803 -3.5 L 135.3745138470803 -0.5 L 109.78100692354015 -0.5 Z"/><text text-anchor="middle" pointer-events="none" font-size="8px" fill="#000000" x="80.18725692354015" y="3" transform="rotate(180 80.18725692354015 0)" font-family="sans-serif">DESTINATION</text></g><g class="relationship" transform="translate(137.70048740073202 425.0334430639325) rotate(350.8418776614775)"><path class="outline" fill="#A5ABB6" stroke="none" d="M 25 0.5 L 58.90098793379761 0.5 L 58.90098793379761 -0.5 L 25 -0.5 Z M 93.34630043379761 0.5 L 127.24728836759522 0.5 L 127.24728836759522 3.5 L 134.24728836759522 0 L 127.24728836759522 -3.5 L 127.24728836759522 -0.5 L 93.34630043379761 -0.5 Z"/><text text-anchor="middle" pointer-events="none" font-size="8px" fill="#000000" x="76.12364418379761" y="3" font-family="sans-serif">ORIGIN</text></g><g class="relationship" transform="translate(318.08953770898694 542.562006450081) rotate(260.7878389932071)"><path class="outline" fill="#A5ABB6" stroke="none" d="M 25 0.5 L 51.647909574024425 0.5 L 51.647909574024425 -0.5 L 25 -0.5 Z M 86.09322207402442 0.5 L 112.74113164804885 0.5 L 112.74113164804885 3.5 L 119.74113164804885 0 L 112.74113164804885 -3.5 L 112.74113164804885 -0.5 L 86.09322207402442 -0.5 Z"/><text text-anchor="middle" pointer-events="none" font-size="8px" fill="#000000" x="68.87056582402442" y="3" transform="rotate(180 68.87056582402442 0)" font-family="sans-serif">ORIGIN</text></g><g class="relationship" transform="translate(318.08953770898694 542.562006450081) rotate(356.6608420218072)"><path class="outline" fill="#A5ABB6" stroke="none" d="M 25 0.5 L 38.86219377421864 0.5 L 38.86219377421864 -0.5 L 25 -0.5 Z M 98.04969377421864 0.5 L 111.91188754843728 0.5 L 111.91188754843728 3.5 L 118.91188754843728 0 L 111.91188754843728 -3.5 L 111.91188754843728 -0.5 L 98.04969377421864 -0.5 Z"/><text text-anchor="middle" pointer-events="none" font-size="8px" fill="#000000" x="68.45594377421864" y="3" font-family="sans-serif">DESTINATION</text></g><g class="relationship" transform="translate(425.524709647438 383.9446051420569) rotate(533.1268392911908)"><path class="outline" fill="#A5ABB6" stroke="none" d="M 25 0.5 L 45.05348413424926 0.5 L 45.05348413424926 -0.5 L 25 -0.5 Z M 79.49879663424926 0.5 L 99.55228076849852 0.5 L 99.55228076849852 3.5 L 106.55228076849852 0 L 99.55228076849852 -3.5 L 99.55228076849852 -0.5 L 79.49879663424926 -0.5 Z"/><text text-anchor="middle" pointer-events="none" font-size="8px" fill="#000000" x="62.27614038424926" y="3" transform="rotate(180 62.27614038424926 0)" font-family="sans-serif">ORIGIN</text></g><g class="relationship" transform="translate(425.524709647438 383.9446051420569) rotate(436.4408272435154)"><path class="outline" fill="#A5ABB6" stroke="none" d="M 25 0.5 L 44.177461353372465 0.5 L 44.177461353372465 -0.5 L 25 -0.5 Z M 103.36496135337246 0.5 L 122.54242270674493 0.5 L 122.54242270674493 3.5 L 129.54242270674493 0 L 122.54242270674493 -3.5 L 122.54242270674493 -0.5 L 103.36496135337246 -0.5 Z"/><text text-anchor="middle" pointer-events="none" font-size="8px" fill="#000000" x="73.77121135337246" y="3" font-family="sans-serif">DESTINATION</text></g><g class="relationship" transform="translate(453.0193265134029 436.80919291122945) rotate(193.2134370239978)"><path class="outline" fill="#A5ABB6" stroke="none" d="M 25 0.5 L 60.47785010163665 0.5 L 60.47785010163665 -0.5 L 25 -0.5 Z M 94.92316260163665 0.5 L 130.4010127032733 0.5 L 130.4010127032733 3.5 L 137.4010127032733 0 L 130.4010127032733 -3.5 L 130.4010127032733 -0.5 L 94.92316260163665 -0.5 Z"/><text text-anchor="middle" pointer-events="none" font-size="8px" fill="#000000" x="77.70050635163665" y="3" transform="rotate(180 77.70050635163665 0)" font-family="sans-serif">ORIGIN</text></g><g class="relationship" transform="translate(453.0193265134029 436.80919291122945) rotate(444.8721620380466)"><path class="outline" fill="#A5ABB6" stroke="none" d="M 25 0.5 L 26.601574376226807 0.5 L 26.601574376226807 -0.5 L 25 -0.5 Z M 64.16016812622681 0.5 L 65.76174250245361 0.5 L 65.76174250245361 3.5 L 72.76174250245361 0 L 65.76174250245361 -3.5 L 65.76174250245361 -0.5 L 64.16016812622681 -0.5 Z"/><text text-anchor="middle" pointer-events="none" font-size="8px" fill="#000000" x="45.38087125122681" y="3" font-family="sans-serif">DESTI…</text></g><g class="relationship" transform="translate(394.9111142526786 451.43912396962173) rotate(207.36377805638574)"><path class="outline" fill="#A5ABB6" stroke="none" d="M 25 0.5 L 35.573140694756525 0.5 L 35.573140694756525 -0.5 L 25 -0.5 Z M 70.01845319475652 0.5 L 80.59159388951305 0.5 L 80.59159388951305 3.5 L 87.59159388951305 0 L 80.59159388951305 -3.5 L 80.59159388951305 -0.5 L 70.01845319475652 -0.5 Z"/><text text-anchor="middle" pointer-events="none" font-size="8px" fill="#000000" x="52.795796944756525" y="3" transform="rotate(180 52.795796944756525 0)" font-family="sans-serif">ORIGIN</text></g><g class="relationship" transform="translate(394.9111142526786 451.43912396962173) rotate(411.0652985768032)"><path class="outline" fill="#A5ABB6" stroke="none" d="M 25 0.5 L 25.348607552632195 0.5 L 25.348607552632195 -0.5 L 25 -0.5 Z M 74.02048255263219 0.5 L 74.36909010526439 0.5 L 74.36909010526439 3.5 L 81.36909010526439 0 L 74.36909010526439 -3.5 L 74.36909010526439 -0.5 L 74.02048255263219 -0.5 Z"/><text text-anchor="middle" pointer-events="none" font-size="8px" fill="#000000" x="49.684545052632195" y="3" font-family="sans-serif">DESTINA…</text></g><g class="relationship" transform="translate(361.18834645481473 501.19341650473007) rotate(236.8604947080463)"><path class="outline" fill="#A5ABB6" stroke="none" d="M 25 0.5 L 39.88920689011863 0.5 L 39.88920689011863 -0.5 L 25 -0.5 Z M 74.33451939011863 0.5 L 89.22372628023726 0.5 L 89.22372628023726 3.5 L 96.22372628023726 0 L 89.22372628023726 -3.5 L 89.22372628023726 -0.5 L 74.33451939011863 -0.5 Z"/><text text-anchor="middle" pointer-events="none" font-size="8px" fill="#000000" x="57.11186314011863" y="3" transform="rotate(180 57.11186314011863 0)" font-family="sans-serif">ORIGIN</text></g><g class="relationship" transform="translate(361.18834645481473 501.19341650473007) rotate(378.15933732244923)"><path class="outline" fill="#A5ABB6" stroke="none" d="M 25 0.5 L 25.08420657986094 0.5 L 25.08420657986094 -0.5 L 25 -0.5 Z M 73.75608157986093 0.5 L 73.84028815972188 0.5 L 73.84028815972188 3.5 L 80.84028815972188 0 L 73.84028815972188 -3.5 L 73.84028815972188 -0.5 L 73.75608157986093 -0.5 Z"/><text text-anchor="middle" pointer-events="none" font-size="8px" fill="#000000" x="49.42014407986094" y="3" font-family="sans-serif">DESTINA…</text></g><g class="relationship" transform="translate(219.396515974175 -204.3195605664854) rotate(186.59266983975562)"><path class="outline" fill="#A5ABB6" stroke="none" d="M 25 0.5 L 77.54180044697785 0.5 L 77.54180044697785 -0.5 L 25 -0.5 Z M 111.98711294697785 0.5 L 164.5289133939557 0.5 L 164.5289133939557 3.5 L 171.5289133939557 0 L 164.5289133939557 -3.5 L 164.5289133939557 -0.5 L 111.98711294697785 -0.5 Z"/><text text-anchor="middle" pointer-events="none" font-size="8px" fill="#000000" x="94.76445669697785" y="3" transform="rotate(180 94.76445669697785 0)" font-family="sans-serif">ORIGIN</text></g><g class="relationship" transform="translate(219.396515974175 -204.3195605664854) rotate(413.80465580608154)"><path class="outline" fill="#A5ABB6" stroke="none" d="M 25 0.5 L 29.816810461966803 0.5 L 29.816810461966803 -0.5 L 25 -0.5 Z M 89.00431046196681 0.5 L 93.8211209239336 0.5 L 93.8211209239336 3.5 L 100.8211209239336 0 L 93.8211209239336 -3.5 L 93.8211209239336 -0.5 L 89.00431046196681 -0.5 Z"/><text text-anchor="middle" pointer-events="none" font-size="8px" fill="#000000" x="59.4105604619668" y="3" font-family="sans-serif">DESTINATION</text></g><g class="relationship" transform="translate(189.54945797751012 121.13315173487922) rotate(294.944624126267)"><path class="outline" fill="#A5ABB6" stroke="none" d="M 25 0.5 L 102.75264776605398 0.5 L 102.75264776605398 -0.5 L 25 -0.5 Z M 137.197960266054 0.5 L 214.95060803210797 0.5 L 214.95060803210797 3.5 L 221.95060803210797 0 L 214.95060803210797 -3.5 L 214.95060803210797 -0.5 L 137.197960266054 -0.5 Z"/><text text-anchor="middle" pointer-events="none" font-size="8px" fill="#000000" x="119.97530401605398" y="3" font-family="sans-serif">ORIGIN</text></g><g class="relationship" transform="translate(189.54945797751012 121.13315173487922) rotate(492.29847942897936)"><path class="outline" fill="#A5ABB6" stroke="none" d="M 25 0.5 L 106.75378962875692 0.5 L 106.75378962875692 -0.5 L 25 -0.5 Z M 165.94128962875692 0.5 L 247.69507925751384 0.5 L 247.69507925751384 3.5 L 254.69507925751384 0 L 247.69507925751384 -3.5 L 247.69507925751384 -0.5 L 165.94128962875692 -0.5 Z"/><text text-anchor="middle" pointer-events="none" font-size="8px" fill="#000000" x="136.34753962875692" y="3" transform="rotate(180 136.34753962875692 0)" font-family="sans-serif">DESTINATION</text></g><g class="relationship" transform="translate(212.83541639767046 -263.68012702751315) rotate(423.31716262479654)"><path class="outline" fill="#A5ABB6" stroke="none" d="M 25 0.5 L 56.94440671721158 0.5 L 56.94440671721158 -0.5 L 25 -0.5 Z M 116.13190671721158 0.5 L 148.07631343442316 0.5 L 148.07631343442316 3.5 L 155.07631343442316 0 L 148.07631343442316 -3.5 L 148.07631343442316 -0.5 L 116.13190671721158 -0.5 Z"/><text text-anchor="middle" pointer-events="none" font-size="8px" fill="#000000" x="86.53815671721158" y="3" font-family="sans-serif">DESTINATION</text></g><g class="relationship" transform="translate(212.83541639767046 -263.68012702751315) rotate(528.9638135203826)"><path class="outline" fill="#A5ABB6" stroke="none" d="M 25 0.5 L 75.38891467316677 0.5 L 75.38891467316677 -0.5 L 25 -0.5 Z M 109.83422717316677 0.5 L 160.22314184633353 0.5 L 160.22314184633353 3.5 L 167.22314184633353 0 L 160.22314184633353 -3.5 L 160.22314184633353 -0.5 L 109.83422717316677 -0.5 Z"/><text text-anchor="middle" pointer-events="none" font-size="8px" fill="#000000" x="92.61157092316677" y="3" transform="rotate(180 92.61157092316677 0)" font-family="sans-serif">ORIGIN</text></g><g class="relationship" transform="translate(171.0789358412935 -168.9160929901092) rotate(201.53269937986033)"><path class="outline" fill="#A5ABB6" stroke="none" d="M 25 0.5 L 58.24448813577544 0.5 L 58.24448813577544 -0.5 L 25 -0.5 Z M 92.68980063577544 0.5 L 125.93428877155088 0.5 L 125.93428877155088 3.5 L 132.93428877155088 0 L 125.93428877155088 -3.5 L 125.93428877155088 -0.5 L 92.68980063577544 -0.5 Z"/><text text-anchor="middle" pointer-events="none" font-size="8px" fill="#000000" x="75.46714438577544" y="3" transform="rotate(180 75.46714438577544 0)" font-family="sans-serif">ORIGIN</text></g><g class="relationship" transform="translate(171.0789358412935 -168.9160929901092) rotate(388.3402500010632)"><path class="outline" fill="#A5ABB6" stroke="none" d="M 25 0.5 L 36.56529657920299 0.5 L 36.56529657920299 -0.5 L 25 -0.5 Z M 95.752796579203 0.5 L 107.31809315840599 0.5 L 107.31809315840599 3.5 L 114.31809315840599 0 L 107.31809315840599 -3.5 L 107.31809315840599 -0.5 L 95.752796579203 -0.5 Z"/><text text-anchor="middle" pointer-events="none" font-size="8px" fill="#000000" x="66.159046579203" y="3" font-family="sans-serif">DESTINATION</text></g><g class="relationship" transform="translate(164.69801944851787 -228.40405370552952) rotate(539.3798993957109)"><path class="outline" fill="#A5ABB6" stroke="none" d="M 25 0.5 L 49.546890129767846 0.5 L 49.546890129767846 -0.5 L 25 -0.5 Z M 83.99220262976785 0.5 L 108.53909275953569 0.5 L 108.53909275953569 3.5 L 115.53909275953569 0 L 108.53909275953569 -3.5 L 108.53909275953569 -0.5 L 83.99220262976785 -0.5 Z"/><text text-anchor="middle" pointer-events="none" font-size="8px" fill="#000000" x="66.76954637976785" y="3" transform="rotate(180 66.76954637976785 0)" font-family="sans-serif">ORIGIN</text></g><g class="relationship" transform="translate(164.69801944851787 -228.40405370552952) rotate(404.23998409183207)"><path class="outline" fill="#A5ABB6" stroke="none" d="M 25 0.5 L 56.93738275074435 0.5 L 56.93738275074435 -0.5 L 25 -0.5 Z M 116.12488275074435 0.5 L 148.0622655014887 0.5 L 148.0622655014887 3.5 L 155.0622655014887 0 L 148.0622655014887 -3.5 L 148.0622655014887 -0.5 L 116.12488275074435 -0.5 Z"/><text text-anchor="middle" pointer-events="none" font-size="8px" fill="#000000" x="86.53113275074435" y="3" font-family="sans-serif">DESTINATION</text></g><g class="relationship" transform="translate(-7.8371202087528475 204.31066167939616) rotate(533.99536408317)"><path class="outline" fill="#A5ABB6" stroke="none" d="M 25 0.5 L 26.627957689519477 0.5 L 26.627957689519477 -0.5 L 25 -0.5 Z M 81.81545768951948 0.5 L 83.44341537903895 0.5 L 83.44341537903895 3.5 L 90.44341537903895 0 L 83.44341537903895 -3.5 L 83.44341537903895 -0.5 L 81.81545768951948 -0.5 Z"/><text text-anchor="middle" pointer-events="none" font-size="8px" fill="#000000" x="54.22170768951948" y="3" transform="rotate(180 54.22170768951948 0)" font-family="sans-serif">DESTINATI…</text></g><g class="relationship" transform="translate(-7.8371202087528475 204.31066167939616) rotate(335.83483128017247)"><path class="outline" fill="#A5ABB6" stroke="none" d="M 25 0.5 L 45.98028956381235 0.5 L 45.98028956381235 -0.5 L 25 -0.5 Z M 80.42560206381235 0.5 L 101.4058916276247 0.5 L 101.4058916276247 3.5 L 108.4058916276247 0 L 101.4058916276247 -3.5 L 101.4058916276247 -0.5 L 80.42560206381235 -0.5 Z"/><text text-anchor="middle" pointer-events="none" font-size="8px" fill="#000000" x="63.20294581381235" y="3" font-family="sans-serif">ORIGIN</text></g><g class="relationship" transform="translate(170.48489013478806 313.8081814723819) rotate(250.96907582529036)"><path class="outline" fill="#A5ABB6" stroke="none" d="M 25 0.5 L 53.70529178873558 0.5 L 53.70529178873558 -0.5 L 25 -0.5 Z M 112.89279178873558 0.5 L 141.59808357747116 0.5 L 141.59808357747116 3.5 L 148.59808357747116 0 L 141.59808357747116 -3.5 L 141.59808357747116 -0.5 L 112.89279178873558 -0.5 Z"/><text text-anchor="middle" pointer-events="none" font-size="8px" fill="#000000" x="83.29904178873558" y="3" transform="rotate(180 83.29904178873558 0)" font-family="sans-serif">DESTINATION</text></g><g class="relationship" transform="translate(170.48489013478806 313.8081814723819) rotate(394.6121611035882)"><path class="outline" fill="#A5ABB6" stroke="none" d="M 25 0.5 L 54.8730578960578 0.5 L 54.8730578960578 -0.5 L 25 -0.5 Z M 89.3183703960578 0.5 L 119.1914282921156 0.5 L 119.1914282921156 3.5 L 126.1914282921156 0 L 119.1914282921156 -3.5 L 119.1914282921156 -0.5 L 89.3183703960578 -0.5 Z"/><text text-anchor="middle" pointer-events="none" font-size="8px" fill="#000000" x="72.0957141460578" y="3" font-family="sans-serif">ORIGIN</text></g><g class="relationship" transform="translate(267.877018516543 245.3774125155263) rotate(440.0606019272024)"><path class="outline" fill="#A5ABB6" stroke="none" d="M 25 0.5 L 57.60816561469022 0.5 L 57.60816561469022 -0.5 L 25 -0.5 Z M 92.05347811469022 0.5 L 124.66164372938044 0.5 L 124.66164372938044 3.5 L 131.66164372938044 0 L 124.66164372938044 -3.5 L 124.66164372938044 -0.5 L 92.05347811469022 -0.5 Z"/><text text-anchor="middle" pointer-events="none" font-size="8px" fill="#000000" x="74.83082186469022" y="3" font-family="sans-serif">ORIGIN</text></g><g class="relationship" transform="translate(267.877018516543 245.3774125155263) rotate(211.8525530687582)"><path class="outline" fill="#A5ABB6" stroke="none" d="M 25 0.5 L 57.55676064461775 0.5 L 57.55676064461775 -0.5 L 25 -0.5 Z M 116.74426064461775 0.5 L 149.3010212892355 0.5 L 149.3010212892355 3.5 L 156.3010212892355 0 L 149.3010212892355 -3.5 L 149.3010212892355 -0.5 L 116.74426064461775 -0.5 Z"/><text text-anchor="middle" pointer-events="none" font-size="8px" fill="#000000" x="87.15051064461775" y="3" transform="rotate(180 87.15051064461775 0)" font-family="sans-serif">DESTINATION</text></g><g class="relationship" transform="translate(13.249046456131298 260.2276397808495) rotate(197.87987420180275)"><path class="outline" fill="#A5ABB6" stroke="none" d="M 25 0.5 L 38.30262735711905 0.5 L 38.30262735711905 -0.5 L 25 -0.5 Z M 97.49012735711905 0.5 L 110.7927547142381 0.5 L 110.7927547142381 3.5 L 117.7927547142381 0 L 110.7927547142381 -3.5 L 110.7927547142381 -0.5 L 97.49012735711905 -0.5 Z"/><text text-anchor="middle" pointer-events="none" font-size="8px" fill="#000000" x="67.89637735711905" y="3" transform="rotate(180 67.89637735711905 0)" font-family="sans-serif">DESTINATION</text></g><g class="relationship" transform="translate(13.249046456131298 260.2276397808495) rotate(312.3157267035279)"><path class="outline" fill="#A5ABB6" stroke="none" d="M 25 0.5 L 54.01511525913564 0.5 L 54.01511525913564 -0.5 L 25 -0.5 Z M 88.46042775913564 0.5 L 117.47554301827128 0.5 L 117.47554301827128 3.5 L 124.47554301827128 0 L 117.47554301827128 -3.5 L 117.47554301827128 -0.5 L 88.46042775913564 -0.5 Z"/><text text-anchor="middle" pointer-events="none" font-size="8px" fill="#000000" x="71.23777150913564" y="3" font-family="sans-serif">ORIGIN</text></g><g class="relationship" transform="translate(216.35605406783017 275.73181289497666) rotate(417.6339611757284)"><path class="outline" fill="#A5ABB6" stroke="none" d="M 25 0.5 L 52.65481750752957 0.5 L 52.65481750752957 -0.5 L 25 -0.5 Z M 87.10013000752957 0.5 L 114.75494751505914 0.5 L 114.75494751505914 3.5 L 121.75494751505914 0 L 114.75494751505914 -3.5 L 114.75494751505914 -0.5 L 87.10013000752957 -0.5 Z"/><text text-anchor="middle" pointer-events="none" font-size="8px" fill="#000000" x="69.87747375752957" y="3" font-family="sans-serif">ORIGIN</text></g><g class="relationship" transform="translate(216.35605406783017 275.73181289497666) rotate(230.88542191164004)"><path class="outline" fill="#A5ABB6" stroke="none" d="M 25 0.5 L 48.125223893754736 0.5 L 48.125223893754736 -0.5 L 25 -0.5 Z M 107.31272389375474 0.5 L 130.43794778750947 0.5 L 130.43794778750947 3.5 L 137.43794778750947 0 L 130.43794778750947 -3.5 L 130.43794778750947 -0.5 L 107.31272389375474 -0.5 Z"/><text text-anchor="middle" pointer-events="none" font-size="8px" fill="#000000" x="77.71897389375474" y="3" transform="rotate(180 77.71897389375474 0)" font-family="sans-serif">DESTINATION</text></g><g class="relationship" transform="translate(288.4137336006393 59.94021574628158) rotate(512.7846151208298)"><path class="outline" fill="#A5ABB6" stroke="none" d="M 25 0.5 L 77.4088458512877 0.5 L 77.4088458512877 -0.5 L 25 -0.5 Z M 111.8541583512877 0.5 L 164.2630042025754 0.5 L 164.2630042025754 3.5 L 171.2630042025754 0 L 164.2630042025754 -3.5 L 164.2630042025754 -0.5 L 111.8541583512877 -0.5 Z"/><text text-anchor="middle" pointer-events="none" font-size="8px" fill="#000000" x="94.6315021012877" y="3" transform="rotate(180 94.6315021012877 0)" font-family="sans-serif">ORIGIN</text></g><g class="relationship" transform="translate(288.4137336006393 59.94021574628158) rotate(271.86031921341225)"><path class="outline" fill="#A5ABB6" stroke="none" d="M 25 0.5 L 48.30969825257837 0.5 L 48.30969825257837 -0.5 L 25 -0.5 Z M 107.49719825257837 0.5 L 130.80689650515674 0.5 L 130.80689650515674 3.5 L 137.80689650515674 0 L 130.80689650515674 -3.5 L 130.80689650515674 -0.5 L 107.49719825257837 -0.5 Z"/><text text-anchor="middle" pointer-events="none" font-size="8px" fill="#000000" x="77.90344825257837" y="3" font-family="sans-serif">DESTINATION</text></g><g class="relationship" transform="translate(238.48012331133208 27.378848467401784) rotate(495.52954197802126)"><path class="outline" fill="#A5ABB6" stroke="none" d="M 25 0.5 L 66.58099620331535 0.5 L 66.58099620331535 -0.5 L 25 -0.5 Z M 101.02630870331535 0.5 L 142.6073049066307 0.5 L 142.6073049066307 3.5 L 149.6073049066307 0 L 142.6073049066307 -3.5 L 142.6073049066307 -0.5 L 101.02630870331535 -0.5 Z"/><text text-anchor="middle" pointer-events="none" font-size="8px" fill="#000000" x="83.80365245331535" y="3" transform="rotate(180 83.80365245331535 0)" font-family="sans-serif">ORIGIN</text></g><g class="relationship" transform="translate(238.48012331133208 27.378848467401784) rotate(292.9885429449022)"><path class="outline" fill="#A5ABB6" stroke="none" d="M 25 0.5 L 37.600432168225055 0.5 L 37.600432168225055 -0.5 L 25 -0.5 Z M 96.78793216822505 0.5 L 109.38836433645011 0.5 L 109.38836433645011 3.5 L 116.38836433645011 0 L 109.38836433645011 -3.5 L 109.38836433645011 -0.5 L 96.78793216822505 -0.5 Z"/><text text-anchor="middle" pointer-events="none" font-size="8px" fill="#000000" x="67.19418216822505" y="3" font-family="sans-serif">DESTINATION</text></g><g class="relationship" transform="translate(88.79212120415723 -300.1022000954205) rotate(444.0715105257118)"><path class="outline" fill="#A5ABB6" stroke="none" d="M 25 0.5 L 53.443744603145305 0.5 L 53.443744603145305 -0.5 L 25 -0.5 Z M 112.6312446031453 0.5 L 141.0749892062906 0.5 L 141.0749892062906 3.5 L 148.0749892062906 0 L 141.0749892062906 -3.5 L 141.0749892062906 -0.5 L 112.6312446031453 -0.5 Z"/><text text-anchor="middle" pointer-events="none" font-size="8px" fill="#000000" x="83.0374946031453" y="3" font-family="sans-serif">DESTINATION</text></g><g class="relationship" transform="translate(88.79212120415723 -300.1022000954205) rotate(491.43239264566773)"><path class="outline" fill="#A5ABB6" stroke="none" d="M 25 0.5 L 28.10722396689296 0.5 L 28.10722396689296 -0.5 L 25 -0.5 Z M 62.55253646689296 0.5 L 65.65976043378592 0.5 L 65.65976043378592 3.5 L 72.65976043378592 0 L 65.65976043378592 -3.5 L 65.65976043378592 -0.5 L 62.55253646689296 -0.5 Z"/><text text-anchor="middle" pointer-events="none" font-size="8px" fill="#000000" x="45.32988021689296" y="3" transform="rotate(180 45.32988021689296 0)" font-family="sans-serif">ORIGIN</text></g><g class="relationship" transform="translate(133.73000023412237 24.21057958924824) rotate(259.91568711822316)"><path class="outline" fill="#A5ABB6" stroke="none" d="M 25 0.5 L 56.55289553795022 0.5 L 56.55289553795022 -0.5 L 25 -0.5 Z M 90.99820803795022 0.5 L 122.55110357590044 0.5 L 122.55110357590044 3.5 L 129.55110357590044 0 L 122.55110357590044 -3.5 L 122.55110357590044 -0.5 L 90.99820803795022 -0.5 Z"/><text text-anchor="middle" pointer-events="none" font-size="8px" fill="#000000" x="73.77555178795022" y="3" transform="rotate(180 73.77555178795022 0)" font-family="sans-serif">ORIGIN</text></g><g class="relationship" transform="translate(133.73000023412237 24.21057958924824) rotate(458.9894733727436)"><path class="outline" fill="#A5ABB6" stroke="none" d="M 25 0.5 L 30.43047264793804 0.5 L 30.43047264793804 -0.5 L 25 -0.5 Z M 89.61797264793805 0.5 L 95.04844529587608 0.5 L 95.04844529587608 3.5 L 102.04844529587608 0 L 95.04844529587608 -3.5 L 95.04844529587608 -0.5 L 89.61797264793805 -0.5 Z"/><text text-anchor="middle" pointer-events="none" font-size="8px" fill="#000000" x="60.02422264793804" y="3" transform="rotate(180 60.02422264793804 0)" font-family="sans-serif">DESTINATION</text></g><g class="relationship" transform="translate(79.13516314233716 -0.08420814157361807) rotate(282.1516999043656)"><path class="outline" fill="#A5ABB6" stroke="none" d="M 25 0.5 L 32.30595595794614 0.5 L 32.30595595794614 -0.5 L 25 -0.5 Z M 91.49345595794614 0.5 L 98.79941191589228 0.5 L 98.79941191589228 3.5 L 105.79941191589228 0 L 98.79941191589228 -3.5 L 98.79941191589228 -0.5 L 91.49345595794614 -0.5 Z"/><text text-anchor="middle" pointer-events="none" font-size="8px" fill="#000000" x="61.89970595794614" y="3" font-family="sans-serif">DESTINATION</text></g><g class="relationship" transform="translate(79.13516314233716 -0.08420814157361807) rotate(436.9407906659572)"><path class="outline" fill="#A5ABB6" stroke="none" d="M 25 0.5 L 56.15702946214479 0.5 L 56.15702946214479 -0.5 L 25 -0.5 Z M 90.60234196214479 0.5 L 121.75937142428958 0.5 L 121.75937142428958 3.5 L 128.75937142428958 0 L 121.75937142428958 -3.5 L 121.75937142428958 -0.5 L 90.60234196214479 -0.5 Z"/><text text-anchor="middle" pointer-events="none" font-size="8px" fill="#000000" x="73.37968571214479" y="3" font-family="sans-serif">ORIGIN</text></g><g class="relationship" transform="translate(185.01173331273 -6.29518045017174) rotate(474.51308215513785)"><path class="outline" fill="#A5ABB6" stroke="none" d="M 25 0.5 L 65.0007256642982 0.5 L 65.0007256642982 -0.5 L 25 -0.5 Z M 99.4460381642982 0.5 L 139.4467638285964 0.5 L 139.4467638285964 3.5 L 146.4467638285964 0 L 139.4467638285964 -3.5 L 139.4467638285964 -0.5 L 99.4460381642982 -0.5 Z"/><text text-anchor="middle" pointer-events="none" font-size="8px" fill="#000000" x="82.2233819142982" y="3" transform="rotate(180 82.2233819142982 0)" font-family="sans-serif">ORIGIN</text></g><g class="relationship" transform="translate(185.01173331273 -6.29518045017174) rotate(237.21991947491085)"><path class="outline" fill="#A5ABB6" stroke="none" d="M 25 0.5 L 39.25653320487122 0.5 L 39.25653320487122 -0.5 L 25 -0.5 Z M 98.44403320487122 0.5 L 112.70056640974244 0.5 L 112.70056640974244 3.5 L 119.70056640974244 0 L 112.70056640974244 -3.5 L 112.70056640974244 -0.5 L 98.44403320487122 -0.5 Z"/><text text-anchor="middle" pointer-events="none" font-size="8px" fill="#000000" x="68.85028320487122" y="3" transform="rotate(180 68.85028320487122 0)" font-family="sans-serif">DESTINATION</text></g><g class="relationship" transform="translate(-95.35790084151787 -125.45118493021089) rotate(481.8701477971583)"><path class="outline" fill="#A5ABB6" stroke="none" d="M 25 0.5 L 60.389172329689856 0.5 L 60.389172329689856 -0.5 L 25 -0.5 Z M 119.57667232968986 0.5 L 154.9658446593797 0.5 L 154.9658446593797 3.5 L 161.9658446593797 0 L 154.9658446593797 -3.5 L 154.9658446593797 -0.5 L 119.57667232968986 -0.5 Z"/><text text-anchor="middle" pointer-events="none" font-size="8px" fill="#000000" x="89.98292232968986" y="3" transform="rotate(180 89.98292232968986 0)" font-family="sans-serif">DESTINATION</text></g><g class="relationship" transform="translate(-95.35790084151787 -125.45118493021089) rotate(319.6812536720762)"><path class="outline" fill="#A5ABB6" stroke="none" d="M 25 0.5 L 57.658885422321234 0.5 L 57.658885422321234 -0.5 L 25 -0.5 Z M 92.10419792232123 0.5 L 124.76308334464247 0.5 L 124.76308334464247 3.5 L 131.76308334464247 0 L 124.76308334464247 -3.5 L 124.76308334464247 -0.5 L 92.10419792232123 -0.5 Z"/><text text-anchor="middle" pointer-events="none" font-size="8px" fill="#000000" x="74.88154167232123" y="3" font-family="sans-serif">ORIGIN</text></g><g class="relationship" transform="translate(-84.75086923647959 137.4895075117647) rotate(363.51733137953795)"><path class="outline" fill="#A5ABB6" stroke="none" d="M 25 0.5 L 78.7793614440515 0.5 L 78.7793614440515 -0.5 L 25 -0.5 Z M 113.2246739440515 0.5 L 167.004035388103 0.5 L 167.004035388103 3.5 L 174.004035388103 0 L 167.004035388103 -3.5 L 167.004035388103 -0.5 L 113.2246739440515 -0.5 Z"/><text text-anchor="middle" pointer-events="none" font-size="8px" fill="#000000" x="96.0020176940515" y="3" font-family="sans-serif">ORIGIN</text></g><g class="relationship" transform="translate(-84.75086923647959 137.4895075117647) rotate(223.6144162468421)"><path class="outline" fill="#A5ABB6" stroke="none" d="M 25 0.5 L 42.40658865243552 0.5 L 42.40658865243552 -0.5 L 25 -0.5 Z M 101.59408865243552 0.5 L 119.00067730487103 0.5 L 119.00067730487103 3.5 L 126.00067730487103 0 L 119.00067730487103 -3.5 L 119.00067730487103 -0.5 L 101.59408865243552 -0.5 Z"/><text text-anchor="middle" pointer-events="none" font-size="8px" fill="#000000" x="72.00033865243552" y="3" transform="rotate(180 72.00033865243552 0)" font-family="sans-serif">DESTINATION</text></g><g class="relationship" transform="translate(-148.0655507151759 -153.68026279201152) rotate(463.82186551714346)"><path class="outline" fill="#A5ABB6" stroke="none" d="M 25 0.5 L 63.19920881235804 0.5 L 63.19920881235804 -0.5 L 25 -0.5 Z M 122.38670881235804 0.5 L 160.58591762471607 0.5 L 160.58591762471607 3.5 L 167.58591762471607 0 L 160.58591762471607 -3.5 L 160.58591762471607 -0.5 L 122.38670881235804 -0.5 Z"/><text text-anchor="middle" pointer-events="none" font-size="8px" fill="#000000" x="92.79295881235804" y="3" transform="rotate(180 92.79295881235804 0)" font-family="sans-serif">DESTINATION</text></g><g class="relationship" transform="translate(-148.0655507151759 -153.68026279201152) rotate(336.97341092369425)"><path class="outline" fill="#A5ABB6" stroke="none" d="M 25 0.5 L 72.84918098967714 0.5 L 72.84918098967714 -0.5 L 25 -0.5 Z M 107.29449348967714 0.5 L 155.14367447935427 0.5 L 155.14367447935427 3.5 L 162.14367447935427 0 L 155.14367447935427 -3.5 L 155.14367447935427 -0.5 L 107.29449348967714 -0.5 Z"/><text text-anchor="middle" pointer-events="none" font-size="8px" fill="#000000" x="90.07183723967714" y="3" font-family="sans-serif">ORIGIN</text></g><g class="relationship" transform="translate(-30.967889001355296 111.91929020776038) rotate(205.72626506441247)"><path class="outline" fill="#A5ABB6" stroke="none" d="M 25 0.5 L 69.80413727422832 0.5 L 69.80413727422832 -0.5 L 25 -0.5 Z M 104.24944977422832 0.5 L 149.05358704845665 0.5 L 149.05358704845665 3.5 L 156.05358704845665 0 L 149.05358704845665 -3.5 L 149.05358704845665 -0.5 L 104.24944977422832 -0.5 Z"/><text text-anchor="middle" pointer-events="none" font-size="8px" fill="#000000" x="87.02679352422832" y="3" transform="rotate(180 87.02679352422832 0)" font-family="sans-serif">ORIGIN</text></g><g class="relationship" transform="translate(-30.967889001355296 111.91929020776038) rotate(374.6183720485975)"><path class="outline" fill="#A5ABB6" stroke="none" d="M 25 0.5 L 41.75223652403329 0.5 L 41.75223652403329 -0.5 L 25 -0.5 Z M 100.9397365240333 0.5 L 117.69197304806659 0.5 L 117.69197304806659 3.5 L 124.69197304806659 0 L 117.69197304806659 -3.5 L 117.69197304806659 -0.5 L 100.9397365240333 -0.5 Z"/><text text-anchor="middle" pointer-events="none" font-size="8px" fill="#000000" x="71.3459865240333" y="3" font-family="sans-serif">DESTINATION</text></g><g class="relationship" transform="translate(-111.44332179201903 -231.03881868746998) rotate(464.7804811086511)"><path class="outline" fill="#A5ABB6" stroke="none" d="M 25 0.5 L 50.94481938382387 0.5 L 50.94481938382387 -0.5 L 25 -0.5 Z M 110.13231938382387 0.5 L 136.07713876764774 0.5 L 136.07713876764774 3.5 L 143.07713876764774 0 L 136.07713876764774 -3.5 L 136.07713876764774 -0.5 L 110.13231938382387 -0.5 Z"/><text text-anchor="middle" pointer-events="none" font-size="8px" fill="#000000" x="80.53856938382387" y="3" transform="rotate(180 80.53856938382387 0)" font-family="sans-serif">DESTINATION</text></g><g class="relationship" transform="translate(-111.44332179201903 -231.03881868746998) rotate(361.75527065192574)"><path class="outline" fill="#A5ABB6" stroke="none" d="M 25 0.5 L 47.11441407865546 0.5 L 47.11441407865546 -0.5 L 25 -0.5 Z M 81.55972657865546 0.5 L 103.67414065731091 0.5 L 103.67414065731091 3.5 L 110.67414065731091 0 L 103.67414065731091 -3.5 L 103.67414065731091 -0.5 L 81.55972657865546 -0.5 Z"/><text text-anchor="middle" pointer-events="none" font-size="8px" fill="#000000" x="64.33707032865546" y="3" font-family="sans-serif">ORIGIN</text></g><g class="relationship" transform="translate(1.3911712119994104 26.220848456185482) rotate(211.31845583891118)"><path class="outline" fill="#A5ABB6" stroke="none" d="M 25 0.5 L 58.042433840150395 0.5 L 58.042433840150395 -0.5 L 25 -0.5 Z M 117.2299338401504 0.5 L 150.2723676803008 0.5 L 150.2723676803008 3.5 L 157.2723676803008 0 L 150.2723676803008 -3.5 L 150.2723676803008 -0.5 L 117.2299338401504 -0.5 Z"/><text text-anchor="middle" pointer-events="none" font-size="8px" fill="#000000" x="87.6361838401504" y="3" transform="rotate(180 87.6361838401504 0)" font-family="sans-serif">DESTINATION</text></g><g class="relationship" transform="translate(1.3911712119994104 26.220848456185482) rotate(407.6667355234406)"><path class="outline" fill="#A5ABB6" stroke="none" d="M 25 0.5 L 62.793934520243994 0.5 L 62.793934520243994 -0.5 L 25 -0.5 Z M 97.239247020244 0.5 L 135.033181540488 0.5 L 135.033181540488 3.5 L 142.033181540488 0 L 135.033181540488 -3.5 L 135.033181540488 -0.5 L 97.239247020244 -0.5 Z"/><text text-anchor="middle" pointer-events="none" font-size="8px" fill="#000000" x="80.016590770244" y="3" font-family="sans-serif">ORIGIN</text></g><g class="relationship" transform="translate(-50.79052757575013 55.452800508764184) rotate(389.7840070643763)"><path class="outline" fill="#A5ABB6" stroke="none" d="M 25 0.5 L 74.14313570107136 0.5 L 74.14313570107136 -0.5 L 25 -0.5 Z M 108.58844820107136 0.5 L 157.73158390214272 0.5 L 157.73158390214272 3.5 L 164.73158390214272 0 L 157.73158390214272 -3.5 L 157.73158390214272 -0.5 L 108.58844820107136 -0.5 Z"/><text text-anchor="middle" pointer-events="none" font-size="8px" fill="#000000" x="91.36579195107136" y="3" font-family="sans-serif">ORIGIN</text></g><g class="relationship" transform="translate(-50.79052757575013 55.452800508764184) rotate(230.13485471227239)"><path class="outline" fill="#A5ABB6" stroke="none" d="M 25 0.5 L 47.6666237487145 0.5 L 47.6666237487145 -0.5 L 25 -0.5 Z M 106.8541237487145 0.5 L 129.520747497429 0.5 L 129.520747497429 3.5 L 136.520747497429 0 L 129.520747497429 -3.5 L 129.520747497429 -0.5 L 106.8541237487145 -0.5 Z"/><text text-anchor="middle" pointer-events="none" font-size="8px" fill="#000000" x="77.2603737487145" y="3" transform="rotate(180 77.2603737487145 0)" font-family="sans-serif">DESTINATION</text></g><g class="relationship" transform="translate(-182.50640333675796 214.55646965070247) rotate(266.3474652417834)"><path class="outline" fill="#A5ABB6" stroke="none" d="M 25 0.5 L 57.70443047546989 0.5 L 57.70443047546989 -0.5 L 25 -0.5 Z M 116.89193047546989 0.5 L 149.59636095093978 0.5 L 149.59636095093978 3.5 L 156.59636095093978 0 L 149.59636095093978 -3.5 L 149.59636095093978 -0.5 L 116.89193047546989 -0.5 Z"/><text text-anchor="middle" pointer-events="none" font-size="8px" fill="#000000" x="87.29818047546989" y="3" transform="rotate(180 87.29818047546989 0)" font-family="sans-serif">DESTINATION</text></g><g class="relationship" transform="translate(-182.50640333675796 214.55646965070247) rotate(391.68226638907026)"><path class="outline" fill="#A5ABB6" stroke="none" d="M 25 0.5 L 87.28483072302588 0.5 L 87.28483072302588 -0.5 L 25 -0.5 Z M 121.73014322302588 0.5 L 184.01497394605175 0.5 L 184.01497394605175 3.5 L 191.01497394605175 0 L 184.01497394605175 -3.5 L 184.01497394605175 -0.5 L 121.73014322302588 -0.5 Z"/><text text-anchor="middle" pointer-events="none" font-size="8px" fill="#000000" x="104.50748697302588" y="3" font-family="sans-serif">ORIGIN</text></g></g><g class="layer nodes"><g class="node" transform="translate(24.1671574872047,-226.88305729405315)"><circle class="outline" cx="0" cy="0" r="25" fill="#ECB5C9" stroke="#da7298" stroke-width="2px"/><text text-anchor="middle" pointer-events="none" font-family="sans-serif" dy="1.5625" font-size="25" fill="#2A2C34"/><text text-anchor="middle" pointer-events="none" x="0" y="5" font-size="10px" fill="#2A2C34" font-family="sans-serif"> LAX</text></g><g class="node" transform="translate(-74.90720119797922,-33.237496137955894)"><circle class="outline" cx="0" cy="0" r="25" fill="#FFC454" stroke="#d7a013" stroke-width="2px"/><text text-anchor="middle" pointer-events="none" font-family="sans-serif" dy="1.5625" font-size="25" fill="#2A2C34"/><text text-anchor="middle" pointer-events="none" x="0" y="5" font-size="10px" fill="#2A2C34" font-family="sans-serif"> 11/29/20…</text></g><g class="node" transform="translate(-122.64714772829139,216.38707403324253)"><circle class="outline" cx="0" cy="0" r="25" fill="#ECB5C9" stroke="#da7298" stroke-width="2px"/><text text-anchor="middle" pointer-events="none" font-family="sans-serif" dy="1.5625" font-size="25" fill="#2A2C34"/><text text-anchor="middle" pointer-events="none" x="0" y="5" font-size="10px" fill="#2A2C34" font-family="sans-serif"> LAS</text></g><g class="node" transform="translate(-130.4444716699023,362.01429878024055)"><circle class="outline" cx="0" cy="0" r="25" fill="#FFC454" stroke="#d7a013" stroke-width="2px"/><text text-anchor="middle" pointer-events="none" font-family="sans-serif" dy="1.5625" font-size="25" fill="#2A2C34"/><text text-anchor="middle" pointer-events="none" x="0" y="5" font-size="10px" fill="#2A2C34" font-family="sans-serif"> 11/29/20…</text></g><g class="node" transform="translate(1.3166598845339408,328.0093250438319)"><circle class="outline" cx="0" cy="0" r="25" fill="#ECB5C9" stroke="#da7298" stroke-width="2px"/><text text-anchor="middle" pointer-events="none" font-family="sans-serif" dy="1.5625" font-size="25" fill="#2A2C34"/><text text-anchor="middle" pointer-events="none" x="0" y="5" font-size="10px" fill="#2A2C34" font-family="sans-serif"> DEN</text></g><g class="node" transform="translate(137.70048740073202,425.0334430639325)"><circle class="outline" cx="0" cy="0" r="25" fill="#FFC454" stroke="#d7a013" stroke-width="2px"/><text text-anchor="middle" pointer-events="none" font-family="sans-serif" dy="1.5625" font-size="25" fill="#2A2C34"/><text text-anchor="middle" pointer-events="none" x="0" y="5" font-size="10px" fill="#2A2C34" font-family="sans-serif"> 11/29/20…</text></g><g class="node" transform="translate(294.91782813613816,399.68770132060934)"><circle class="outline" cx="0" cy="0" r="25" fill="#ECB5C9" stroke="#da7298" stroke-width="2px"/><text text-anchor="middle" pointer-events="none" font-family="sans-serif" dy="1.5625" font-size="25" fill="#2A2C34"/><text text-anchor="middle" pointer-events="none" x="0" y="5" font-size="10px" fill="#2A2C34" font-family="sans-serif"> MSP</text></g><g class="node" transform="translate(318.08953770898694,542.562006450081)"><circle class="outline" cx="0" cy="0" r="25" fill="#FFC454" stroke="#d7a013" stroke-width="2px"/><text text-anchor="middle" pointer-events="none" font-family="sans-serif" dy="1.5625" font-size="25" fill="#2A2C34"/><text text-anchor="middle" pointer-events="none" x="0" y="5" font-size="10px" fill="#2A2C34" font-family="sans-serif"> 11/23/20…</text></g><g class="node" transform="translate(461.7570977212282,534.1796691934976)"><circle class="outline" cx="0" cy="0" r="25" fill="#ECB5C9" stroke="#da7298" stroke-width="2px"/><text text-anchor="middle" pointer-events="none" font-family="sans-serif" dy="1.5625" font-size="25" fill="#2A2C34"/><text text-anchor="middle" pointer-events="none" x="0" y="5" font-size="10px" fill="#2A2C34" font-family="sans-serif"> DAY</text></g><g class="node" transform="translate(425.524709647438,383.9446051420569)"><circle class="outline" cx="0" cy="0" r="25" fill="#FFC454" stroke="#d7a013" stroke-width="2px"/><text text-anchor="middle" pointer-events="none" font-family="sans-serif" dy="1.5625" font-size="25" fill="#2A2C34"/><text text-anchor="middle" pointer-events="none" x="0" y="5" font-size="10px" fill="#2A2C34" font-family="sans-serif"> 11/20/20…</text></g><g class="node" transform="translate(453.0193265134029,436.80919291122945)"><circle class="outline" cx="0" cy="0" r="25" fill="#FFC454" stroke="#d7a013" stroke-width="2px"/><text text-anchor="middle" pointer-events="none" font-family="sans-serif" dy="1.5625" font-size="25" fill="#2A2C34"/><text text-anchor="middle" pointer-events="none" x="0" y="5" font-size="10px" fill="#2A2C34" font-family="sans-serif"> 11/25/20…</text></g><g class="node" transform="translate(394.9111142526786,451.43912396962173)"><circle class="outline" cx="0" cy="0" r="25" fill="#FFC454" stroke="#d7a013" stroke-width="2px"/><text text-anchor="middle" pointer-events="none" font-family="sans-serif" dy="1.5625" font-size="25" fill="#2A2C34"/><text text-anchor="middle" pointer-events="none" x="0" y="5" font-size="10px" fill="#2A2C34" font-family="sans-serif"> 11/11/20…</text></g><g class="node" transform="translate(361.18834645481473,501.19341650473007)"><circle class="outline" cx="0" cy="0" r="25" fill="#FFC454" stroke="#d7a013" stroke-width="2px"/><text text-anchor="middle" pointer-events="none" font-family="sans-serif" dy="1.5625" font-size="25" fill="#2A2C34"/><text text-anchor="middle" pointer-events="none" x="0" y="5" font-size="10px" fill="#2A2C34" font-family="sans-serif"> 11/16/20…</text></g><g class="node" transform="translate(219.396515974175,-204.3195605664854)"><circle class="outline" cx="0" cy="0" r="25" fill="#FFC454" stroke="#d7a013" stroke-width="2px"/><text text-anchor="middle" pointer-events="none" font-family="sans-serif" dy="1.5625" font-size="25" fill="#2A2C34"/><text text-anchor="middle" pointer-events="none" x="0" y="5" font-size="10px" fill="#2A2C34" font-family="sans-serif"> 11/2/2015</text></g><g class="node" transform="translate(293.69893239635525,-102.78087146533517)"><circle class="outline" cx="0" cy="0" r="25" fill="#ECB5C9" stroke="#da7298" stroke-width="2px"/><text text-anchor="middle" pointer-events="none" font-family="sans-serif" dy="1.5625" font-size="25" fill="#2A2C34"/><text text-anchor="middle" pointer-events="none" x="0" y="5" font-size="10px" fill="#2A2C34" font-family="sans-serif"> SMF</text></g><g class="node" transform="translate(189.54945797751012,121.13315173487922)"><circle class="outline" cx="0" cy="0" r="25" fill="#FFC454" stroke="#d7a013" stroke-width="2px"/><text text-anchor="middle" pointer-events="none" font-family="sans-serif" dy="1.5625" font-size="25" fill="#2A2C34"/><text text-anchor="middle" pointer-events="none" x="0" y="5" font-size="10px" fill="#2A2C34" font-family="sans-serif"> 11/30/20…</text></g><g class="node" transform="translate(212.83541639767046,-263.68012702751315)"><circle class="outline" cx="0" cy="0" r="25" fill="#FFC454" stroke="#d7a013" stroke-width="2px"/><text text-anchor="middle" pointer-events="none" font-family="sans-serif" dy="1.5625" font-size="25" fill="#2A2C34"/><text text-anchor="middle" pointer-events="none" x="0" y="5" font-size="10px" fill="#2A2C34" font-family="sans-serif"> 11/3/2015</text></g><g class="node" transform="translate(171.0789358412935,-168.9160929901092)"><circle class="outline" cx="0" cy="0" r="25" fill="#FFC454" stroke="#d7a013" stroke-width="2px"/><text text-anchor="middle" pointer-events="none" font-family="sans-serif" dy="1.5625" font-size="25" fill="#2A2C34"/><text text-anchor="middle" pointer-events="none" x="0" y="5" font-size="10px" fill="#2A2C34" font-family="sans-serif"> 11/1/2015</text></g><g class="node" transform="translate(164.69801944851787,-228.40405370552952)"><circle class="outline" cx="0" cy="0" r="25" fill="#FFC454" stroke="#d7a013" stroke-width="2px"/><text text-anchor="middle" pointer-events="none" font-family="sans-serif" dy="1.5625" font-size="25" fill="#2A2C34"/><text text-anchor="middle" pointer-events="none" x="0" y="5" font-size="10px" fill="#2A2C34" font-family="sans-serif"> 11/4/2015</text></g><g class="node" transform="translate(-7.8371202087528475,204.31066167939616)"><circle class="outline" cx="0" cy="0" r="25" fill="#FFC454" stroke="#d7a013" stroke-width="2px"/><text text-anchor="middle" pointer-events="none" font-family="sans-serif" dy="1.5625" font-size="25" fill="#2A2C34"/><text text-anchor="middle" pointer-events="none" x="0" y="5" font-size="10px" fill="#2A2C34" font-family="sans-serif"> 11/29/20…</text></g><g class="node" transform="translate(113.87829950528776,149.6984970565168)"><circle class="outline" cx="0" cy="0" r="25" fill="#ECB5C9" stroke="#da7298" stroke-width="2px"/><text text-anchor="middle" pointer-events="none" font-family="sans-serif" dy="1.5625" font-size="25" fill="#2A2C34"/><text text-anchor="middle" pointer-events="none" x="0" y="5" font-size="10px" fill="#2A2C34" font-family="sans-serif"> ORD</text></g><g class="node" transform="translate(170.48489013478806,313.8081814723819)"><circle class="outline" cx="0" cy="0" r="25" fill="#FFC454" stroke="#d7a013" stroke-width="2px"/><text text-anchor="middle" pointer-events="none" font-family="sans-serif" dy="1.5625" font-size="25" fill="#2A2C34"/><text text-anchor="middle" pointer-events="none" x="0" y="5" font-size="10px" fill="#2A2C34" font-family="sans-serif"> 11/29/20…</text></g><g class="node" transform="translate(267.877018516543,245.3774125155263)"><circle class="outline" cx="0" cy="0" r="25" fill="#FFC454" stroke="#d7a013" stroke-width="2px"/><text text-anchor="middle" pointer-events="none" font-family="sans-serif" dy="1.5625" font-size="25" fill="#2A2C34"/><text text-anchor="middle" pointer-events="none" x="0" y="5" font-size="10px" fill="#2A2C34" font-family="sans-serif"> 11/29/20…</text></g><g class="node" transform="translate(13.249046456131298,260.2276397808495)"><circle class="outline" cx="0" cy="0" r="25" fill="#FFC454" stroke="#d7a013" stroke-width="2px"/><text text-anchor="middle" pointer-events="none" font-family="sans-serif" dy="1.5625" font-size="25" fill="#2A2C34"/><text text-anchor="middle" pointer-events="none" x="0" y="5" font-size="10px" fill="#2A2C34" font-family="sans-serif"> 11/29/20…</text></g><g class="node" transform="translate(216.35605406783017,275.73181289497666)"><circle class="outline" cx="0" cy="0" r="25" fill="#FFC454" stroke="#d7a013" stroke-width="2px"/><text text-anchor="middle" pointer-events="none" font-family="sans-serif" dy="1.5625" font-size="25" fill="#2A2C34"/><text text-anchor="middle" pointer-events="none" x="0" y="5" font-size="10px" fill="#2A2C34" font-family="sans-serif"> 11/30/20…</text></g><g class="node" transform="translate(288.4137336006393,59.94021574628158)"><circle class="outline" cx="0" cy="0" r="25" fill="#FFC454" stroke="#d7a013" stroke-width="2px"/><text text-anchor="middle" pointer-events="none" font-family="sans-serif" dy="1.5625" font-size="25" fill="#2A2C34"/><text text-anchor="middle" pointer-events="none" x="0" y="5" font-size="10px" fill="#2A2C34" font-family="sans-serif"> 11/30/20…</text></g><g class="node" transform="translate(238.48012331133208,27.378848467401784)"><circle class="outline" cx="0" cy="0" r="25" fill="#FFC454" stroke="#d7a013" stroke-width="2px"/><text text-anchor="middle" pointer-events="none" font-family="sans-serif" dy="1.5625" font-size="25" fill="#2A2C34"/><text text-anchor="middle" pointer-events="none" x="0" y="5" font-size="10px" fill="#2A2C34" font-family="sans-serif"> 11/29/20…</text></g><g class="node" transform="translate(88.79212120415723,-300.1022000954205)"><circle class="outline" cx="0" cy="0" r="25" fill="#FFC454" stroke="#d7a013" stroke-width="2px"/><text text-anchor="middle" pointer-events="none" font-family="sans-serif" dy="1.5625" font-size="25" fill="#2A2C34"/><text text-anchor="middle" pointer-events="none" x="0" y="5" font-size="10px" fill="#2A2C34" font-family="sans-serif"> 11/30/20…</text></g><g class="node" transform="translate(106.66853929066733,-127.95288826074052)"><circle class="outline" cx="0" cy="0" r="25" fill="#ECB5C9" stroke="#da7298" stroke-width="2px"/><text text-anchor="middle" pointer-events="none" font-family="sans-serif" dy="1.5625" font-size="25" fill="#2A2C34"/><text text-anchor="middle" pointer-events="none" x="0" y="5" font-size="10px" fill="#2A2C34" font-family="sans-serif"> IAH</text></g><g class="node" transform="translate(133.73000023412237,24.21057958924824)"><circle class="outline" cx="0" cy="0" r="25" fill="#FFC454" stroke="#d7a013" stroke-width="2px"/><text text-anchor="middle" pointer-events="none" font-family="sans-serif" dy="1.5625" font-size="25" fill="#2A2C34"/><text text-anchor="middle" pointer-events="none" x="0" y="5" font-size="10px" fill="#2A2C34" font-family="sans-serif"> 11/29/20…</text></g><g class="node" transform="translate(79.13516314233716,-0.08420814157361807)"><circle class="outline" cx="0" cy="0" r="25" fill="#FFC454" stroke="#d7a013" stroke-width="2px"/><text text-anchor="middle" pointer-events="none" font-family="sans-serif" dy="1.5625" font-size="25" fill="#2A2C34"/><text text-anchor="middle" pointer-events="none" x="0" y="5" font-size="10px" fill="#2A2C34" font-family="sans-serif"> 11/30/20…</text></g><g class="node" transform="translate(185.01173331273,-6.29518045017174)"><circle class="outline" cx="0" cy="0" r="25" fill="#FFC454" stroke="#d7a013" stroke-width="2px"/><text text-anchor="middle" pointer-events="none" font-family="sans-serif" dy="1.5625" font-size="25" fill="#2A2C34"/><text text-anchor="middle" pointer-events="none" x="0" y="5" font-size="10px" fill="#2A2C34" font-family="sans-serif"> 11/29/20…</text></g><g class="node" transform="translate(-95.35790084151787,-125.45118493021089)"><circle class="outline" cx="0" cy="0" r="25" fill="#FFC454" stroke="#d7a013" stroke-width="2px"/><text text-anchor="middle" pointer-events="none" font-family="sans-serif" dy="1.5625" font-size="25" fill="#2A2C34"/><text text-anchor="middle" pointer-events="none" x="0" y="5" font-size="10px" fill="#2A2C34" font-family="sans-serif"> 11/30/20…</text></g><g class="node" transform="translate(-194.07510632751385,33.32897885050494)"><circle class="outline" cx="0" cy="0" r="25" fill="#ECB5C9" stroke="#da7298" stroke-width="2px"/><text text-anchor="middle" pointer-events="none" font-family="sans-serif" dy="1.5625" font-size="25" fill="#2A2C34"/><text text-anchor="middle" pointer-events="none" x="0" y="5" font-size="10px" fill="#2A2C34" font-family="sans-serif"> EWR</text></g><g class="node" transform="translate(-84.75086923647959,137.4895075117647)"><circle class="outline" cx="0" cy="0" r="25" fill="#FFC454" stroke="#d7a013" stroke-width="2px"/><text text-anchor="middle" pointer-events="none" font-family="sans-serif" dy="1.5625" font-size="25" fill="#2A2C34"/><text text-anchor="middle" pointer-events="none" x="0" y="5" font-size="10px" fill="#2A2C34" font-family="sans-serif"> 11/30/20…</text></g><g class="node" transform="translate(-148.0655507151759,-153.68026279201152)"><circle class="outline" cx="0" cy="0" r="25" fill="#FFC454" stroke="#d7a013" stroke-width="2px"/><text text-anchor="middle" pointer-events="none" font-family="sans-serif" dy="1.5625" font-size="25" fill="#2A2C34"/><text text-anchor="middle" pointer-events="none" x="0" y="5" font-size="10px" fill="#2A2C34" font-family="sans-serif"> 11/29/20…</text></g><g class="node" transform="translate(-30.967889001355296,111.91929020776038)"><circle class="outline" cx="0" cy="0" r="25" fill="#FFC454" stroke="#d7a013" stroke-width="2px"/><text text-anchor="middle" pointer-events="none" font-family="sans-serif" dy="1.5625" font-size="25" fill="#2A2C34"/><text text-anchor="middle" pointer-events="none" x="0" y="5" font-size="10px" fill="#2A2C34" font-family="sans-serif"> 11/30/20…</text></g><g class="node" transform="translate(-111.44332179201903,-231.03881868746998)"><circle class="outline" cx="0" cy="0" r="25" fill="#FFC454" stroke="#d7a013" stroke-width="2px"/><text text-anchor="middle" pointer-events="none" font-family="sans-serif" dy="1.5625" font-size="25" fill="#2A2C34"/><text text-anchor="middle" pointer-events="none" x="0" y="5" font-size="10px" fill="#2A2C34" font-family="sans-serif"> 11/29/20…</text></g><g class="node" transform="translate(-154.32255239669857,-68.52329278588167)"><circle class="outline" cx="0" cy="0" r="25" fill="#ECB5C9" stroke="#da7298" stroke-width="2px"/><text text-anchor="middle" pointer-events="none" font-family="sans-serif" dy="1.5625" font-size="25" fill="#2A2C34"/><text text-anchor="middle" pointer-events="none" x="0" y="5" font-size="10px" fill="#2A2C34" font-family="sans-serif"> BOS</text></g><g class="node" transform="translate(1.3911712119994104,26.220848456185482)"><circle class="outline" cx="0" cy="0" r="25" fill="#FFC454" stroke="#d7a013" stroke-width="2px"/><text text-anchor="middle" pointer-events="none" font-family="sans-serif" dy="1.5625" font-size="25" fill="#2A2C34"/><text text-anchor="middle" pointer-events="none" x="0" y="5" font-size="10px" fill="#2A2C34" font-family="sans-serif"> 11/30/20…</text></g><g class="node" transform="translate(-50.79052757575013,55.452800508764184)"><circle class="outline" cx="0" cy="0" r="25" fill="#FFC454" stroke="#d7a013" stroke-width="2px"/><text text-anchor="middle" pointer-events="none" font-family="sans-serif" dy="1.5625" font-size="25" fill="#2A2C34"/><text text-anchor="middle" pointer-events="none" x="0" y="5" font-size="10px" fill="#2A2C34" font-family="sans-serif"> 11/29/20…</text></g><g class="node" transform="translate(-182.50640333675796,214.55646965070247)"><circle class="outline" cx="0" cy="0" r="25" fill="#FFC454" stroke="#d7a013" stroke-width="2px"/><text text-anchor="middle" pointer-events="none" font-family="sans-serif" dy="1.5625" font-size="25" fill="#2A2C34"/><text text-anchor="middle" pointer-events="none" x="0" y="5" font-size="10px" fill="#2A2C34" font-family="sans-serif"> 11/30/20…</text></g></g></svg>