<svg xmlns="http://www.w3.org/2000/svg" width="403.6604309082031" height="400.48468017578125" viewBox="-107.1029281616211 -88.96257019042969 403.6604309082031 400.48468017578125"><title>Neo4j Graph Visualization</title><desc>Created using Neo4j (http://www.neo4j.com/)</desc><g class="layer relationships"><g class="relationship" transform="translate(238.40977831861335 205.5184692024817) rotate(493.5784788626921)"><path class="outline" fill="#A5ABB6" stroke="none" d="M 25 0.5 L 32.425026266470105 0.5 L 32.425026266470105 -0.5 L 25 -0.5 Z M 66.8703387664701 0.5 L 74.29536503294021 0.5 L 74.29536503294021 3.5 L 81.29536503294021 0 L 74.29536503294021 -3.5 L 74.29536503294021 -0.5 L 66.8703387664701 -0.5 Z"/><text text-anchor="middle" pointer-events="none" font-size="8px" fill="#000000" x="49.647682516470105" y="3" transform="rotate(180 49.647682516470105 0)" font-family="sans-serif">ORIGIN</text></g><g class="relationship" transform="translate(238.40977831861335 205.5184692024817) rotate(285.76854450930455)"><path class="outline" fill="#A5ABB6" stroke="none" d="M 25 0.5 L 25.793336788102494 0.5 L 25.793336788102494 -0.5 L 25 -0.5 Z M 74.4652117881025 0.5 L 75.25854857620499 0.5 L 75.25854857620499 3.5 L 82.25854857620499 0 L 75.25854857620499 -3.5 L 75.25854857620499 -0.5 L 74.4652117881025 -0.5 Z"/><text text-anchor="middle" pointer-events="none" font-size="8px" fill="#000000" x="50.12927428810249" y="3" font-family="sans-serif">DESTINA…</text></g><g class="relationship" transform="translate(235.85014368541005 -1.6505554331079437) rotate(433.0365043893652)"><path class="outline" fill="#A5ABB6" stroke="none" d="M 25 0.5 L 33.61497949745163 0.5 L 33.61497949745163 -0.5 L 25 -0.5 Z M 68.06029199745163 0.5 L 76.67527149490326 0.5 L 76.67527149490326 3.5 L 83.67527149490326 0 L 76.67527149490326 -3.5 L 76.67527149490326 -0.5 L 68.06029199745163 -0.5 Z"/><text text-anchor="middle" pointer-events="none" font-size="8px" fill="#000000" x="50.83763574745163" y="3" font-family="sans-serif">ORIGIN</text></g><g class="relationship" transform="translate(235.85014368541005 -1.6505554331079437) rotate(212.29585182732262)"><path class="outline" fill="#A5ABB6" stroke="none" d="M 25 0.5 L 26.73357064959842 0.5 L 26.73357064959842 -0.5 L 25 -0.5 Z M 75.40544564959842 0.5 L 77.13901629919684 0.5 L 77.13901629919684 3.5 L 84.13901629919684 0 L 77.13901629919684 -3.5 L 77.13901629919684 -0.5 L 75.40544564959842 -0.5 Z"/><text text-anchor="middle" pointer-events="none" font-size="8px" fill="#000000" x="51.06950814959842" y="3" transform="rotate(180 51.06950814959842 0)" font-family="sans-serif">DESTINA…</text></g><g class="relationship" transform="translate(34.65779184987224 -53.172549093922456) rotate(356.4333845881364)"><path class="outline" fill="#A5ABB6" stroke="none" d="M 25 0.5 L 26.738307313611507 0.5 L 26.738307313611507 -0.5 L 25 -0.5 Z M 75.4101823136115 0.5 L 77.14848962722301 0.5 L 77.14848962722301 3.5 L 84.14848962722301 0 L 77.14848962722301 -3.5 L 77.14848962722301 -0.5 L 75.4101823136115 -0.5 Z"/><text text-anchor="middle" pointer-events="none" font-size="8px" fill="#000000" x="51.07424481361151" y="3" font-family="sans-serif">DESTINA…</text></g><g class="relationship" transform="translate(34.65779184987224 -53.172549093922456) rotate(502.2794732012496)"><path class="outline" fill="#A5ABB6" stroke="none" d="M 25 0.5 L 33.49277344200213 0.5 L 33.49277344200213 -0.5 L 25 -0.5 Z M 67.93808594200213 0.5 L 76.43085938400426 0.5 L 76.43085938400426 3.5 L 83.43085938400426 0 L 76.43085938400426 -3.5 L 76.43085938400426 -0.5 L 67.93808594200213 -0.5 Z"/><text text-anchor="middle" pointer-events="none" font-size="8px" fill="#000000" x="50.71542969200213" y="3" transform="rotate(180 50.71542969200213 0)" font-family="sans-serif">ORIGIN</text></g><g class="relationship" transform="translate(-78.1029290789066 117.90042861158116) rotate(284.4514925056736)"><path class="outline" fill="#A5ABB6" stroke="none" d="M 25 0.5 L 33.355332455427046 0.5 L 33.355332455427046 -0.5 L 25 -0.5 Z M 67.80064495542705 0.5 L 76.15597741085409 0.5 L 76.15597741085409 3.5 L 83.15597741085409 0 L 76.15597741085409 -3.5 L 76.15597741085409 -0.5 L 67.80064495542705 -0.5 Z"/><text text-anchor="middle" pointer-events="none" font-size="8px" fill="#000000" x="50.577988705427046" y="3" font-family="sans-serif">ORIGIN</text></g><g class="relationship" transform="translate(-78.1029290789066 117.90042861158116) rotate(433.32907824596526)"><path class="outline" fill="#A5ABB6" stroke="none" d="M 25 0.5 L 25.773193050892026 0.5 L 25.773193050892026 -0.5 L 25 -0.5 Z M 74.44506805089202 0.5 L 75.21826110178405 0.5 L 75.21826110178405 3.5 L 82.21826110178405 0 L 75.21826110178405 -3.5 L 75.21826110178405 -0.5 L 74.44506805089202 -0.5 Z"/><text text-anchor="middle" pointer-events="none" font-size="8px" fill="#000000" x="50.109130550892026" y="3" font-family="sans-serif">DESTINA…</text></g></g><g class="layer nodes"><g class="node" transform="translate(165.13533571347432,282.5221099501255)"><circle class="outline" cx="0" cy="0" r="25" fill="#ECB5C9" stroke="#da7298" stroke-width="2px"/><text text-anchor="middle" pointer-events="none" font-family="sans-serif" dy="1.5625" font-size="25" fill="#2A2C34"/><text text-anchor="middle" pointer-events="none" x="0" y="5" font-size="10px" fill="#2A2C34" font-family="sans-serif"> LAX</text></g><g class="node" transform="translate(238.40977831861335,205.5184692024817)"><circle class="outline" cx="0" cy="0" r="25" fill="#FFC454" stroke="#d7a013" stroke-width="2px"/><text text-anchor="middle" pointer-events="none" font-family="sans-serif" dy="1.5625" font-size="25" fill="#2A2C34"/><text text-anchor="middle" pointer-events="none" x="0" y="5" font-size="10px" fill="#2A2C34" font-family="sans-serif"> 11/29/20…</text></g><g class="node" transform="translate(267.5574976779168,102.29634609495493)"><circle class="outline" cx="0" cy="0" r="25" fill="#ECB5C9" stroke="#da7298" stroke-width="2px"/><text text-anchor="middle" pointer-events="none" font-family="sans-serif" dy="1.5625" font-size="25" fill="#2A2C34"/><text text-anchor="middle" pointer-events="none" x="0" y="5" font-size="10px" fill="#2A2C34" font-family="sans-serif"> LAS</text></g><g class="node" transform="translate(235.85014368541005,-1.6505554331079437)"><circle class="outline" cx="0" cy="0" r="25" fill="#FFC454" stroke="#d7a013" stroke-width="2px"/><text text-anchor="middle" pointer-events="none" font-family="sans-serif" dy="1.5625" font-size="25" fill="#2A2C34"/><text text-anchor="middle" pointer-events="none" x="0" y="5" font-size="10px" fill="#2A2C34" font-family="sans-serif"> 11/29/20…</text></g><g class="node" transform="translate(143.59487670346425,-59.96256614141962)"><circle class="outline" cx="0" cy="0" r="25" fill="#ECB5C9" stroke="#da7298" stroke-width="2px"/><text text-anchor="middle" pointer-events="none" font-family="sans-serif" dy="1.5625" font-size="25" fill="#2A2C34"/><text text-anchor="middle" pointer-events="none" x="0" y="5" font-size="10px" fill="#2A2C34" font-family="sans-serif"> DEN</text></g><g class="node" transform="translate(34.65779184987224,-53.172549093922456)"><circle class="outline" cx="0" cy="0" r="25" fill="#FFC454" stroke="#d7a013" stroke-width="2px"/><text text-anchor="middle" pointer-events="none" font-family="sans-serif" dy="1.5625" font-size="25" fill="#2A2C34"/><text text-anchor="middle" pointer-events="none" x="0" y="5" font-size="10px" fill="#2A2C34" font-family="sans-serif"> 11/29/20…</text></g><g class="node" transform="translate(-51.11149462628979,13.166585390360304)"><circle class="outline" cx="0" cy="0" r="25" fill="#ECB5C9" stroke="#da7298" stroke-width="2px"/><text text-anchor="middle" pointer-events="none" font-family="sans-serif" dy="1.5625" font-size="25" fill="#2A2C34"/><text text-anchor="middle" pointer-events="none" x="0" y="5" font-size="10px" fill="#2A2C34" font-family="sans-serif"> MSP</text></g><g class="node" transform="translate(-78.1029290789066,117.90042861158116)"><circle class="outline" cx="0" cy="0" r="25" fill="#FFC454" stroke="#d7a013" stroke-width="2px"/><text text-anchor="middle" pointer-events="none" font-family="sans-serif" dy="1.5625" font-size="25" fill="#2A2C34"/><text text-anchor="middle" pointer-events="none" x="0" y="5" font-size="10px" fill="#2A2C34" font-family="sans-serif"> 11/23/20…</text></g><g class="node" transform="translate(-47.344757191877335,220.61211429465376)"><circle class="outline" cx="0" cy="0" r="25" fill="#ECB5C9" stroke="#da7298" stroke-width="2px"/><text text-anchor="middle" pointer-events="none" font-family="sans-serif" dy="1.5625" font-size="25" fill="#2A2C34"/><text text-anchor="middle" pointer-events="none" x="0" y="5" font-size="10px" fill="#2A2C34" font-family="sans-serif"> DAY</text></g></g></svg>