<svg xmlns="http://www.w3.org/2000/svg" width="162.5887451171875" height="242.5913543701172" viewBox="0.04942131042480469 -20.377988815307617 162.5887451171875 242.5913543701172"><title>Neo4j Graph Visualization</title><desc>Created using Neo4j (http://www.neo4j.com/)</desc><g class="layer relationships"><g class="relationship" transform="translate(133.63815898327994 8.622011308923632) rotate(520.5766817936983)"><path class="outline" fill="#A5ABB6" stroke="none" d="M 21.40063509461097,12.933012701892217 L 21.90063509461097,12.06698729810778 A 59.9245758336409 59.9245758336409 0 0 0 40.49695019060749,19.007585854092817 L 40.30727888025267,19.989433497074288 A 60.9245758336409 60.9245758336409 0 0 1 21.40063509461097,12.933012701892217 Z M 59.71091691039699,20.587774397452463 L 59.582101997997846,19.59610574394788 A 59.9245758336409 59.9245758336409 0 0 0 78.57072586344108,13.814496351948945 L 77.23365492983176,11.128934712645709 L 85.05988151075019,11.142257780077726 L 80.3534871082535,17.39524520435326 L 79.01641617464418,14.709683565050023 A 60.9245758336409 60.9245758336409 0 0 1 59.71091691039699,20.587774397452463"/><text text-anchor="middle" pointer-events="none" font-size="8px" fill="#000000" x="50.00052391916093" y="23.566650007390898" transform="rotate(180 50.00052391916093 20.566650007390898)" font-family="sans-serif">trek</text></g><g class="relationship" transform="translate(32.31326226644899 44.3504978893055) rotate(451.7527659577838)"><path class="outline" fill="#A5ABB6" stroke="none" d="M 25 0.5 L 40.18585546953808 0.5 L 40.18585546953808 -0.5 L 25 -0.5 Z M 59.52179296953808 0.5 L 74.70764843907617 0.5 L 74.70764843907617 3.5 L 81.70764843907617 0 L 74.70764843907617 -3.5 L 74.70764843907617 -0.5 L 59.52179296953808 -0.5 Z"/><text text-anchor="middle" pointer-events="none" font-size="8px" fill="#000000" x="49.85382421953808" y="3" transform="rotate(180 49.85382421953808 0)" font-family="sans-serif">trek</text></g><g class="relationship" transform="translate(29.049420422194913 151.00821946544443) rotate(383.13457243919424)"><path class="outline" fill="#A5ABB6" stroke="none" d="M 25 0.5 L 40.542872839383996 0.5 L 40.542872839383996 -0.5 L 25 -0.5 Z M 59.878810339383996 0.5 L 75.42168317876799 0.5 L 75.42168317876799 3.5 L 82.42168317876799 0 L 75.42168317876799 -3.5 L 75.42168317876799 -0.5 L 59.878810339383996 -0.5 Z"/><text text-anchor="middle" pointer-events="none" font-size="8px" fill="#000000" x="50.210841589383996" y="3" font-family="sans-serif">trek</text></g><g class="relationship" transform="translate(133.63815898327994 8.622011308923632) rotate(520.5766817936983)"><path class="outline" fill="#A5ABB6" stroke="none" d="M 25 0.5 L 39.21392154413859 0.5 L 39.21392154413859 -0.5 L 25 -0.5 Z M 61.22564029413859 0.5 L 75.43956183827719 0.5 L 75.43956183827719 3.5 L 82.43956183827719 0 L 75.43956183827719 -3.5 L 75.43956183827719 -0.5 L 61.22564029413859 -0.5 Z"/><text text-anchor="middle" pointer-events="none" font-size="8px" fill="#000000" x="50.21978091913859" y="3" transform="rotate(180 50.21978091913859 0)" font-family="sans-serif">road</text></g><g class="relationship" transform="translate(133.63815898327994 8.622011308923632) rotate(520.5766817936983)"><path class="outline" fill="#A5ABB6" stroke="none" d="M 21.40063509461097,-12.933012701892217 L 21.90063509461097,-12.06698729810778 A 59.9245758336409 59.9245758336409 0 0 1 23.463870046360892,-12.938656817831706 L 22.989956755027627,-13.819228332416223 A 60.9245758336409 60.9245758336409 0 0 0 21.40063509461097,-12.933012701892217 Z M 77.37551047770775,-15.496290187076667 L 76.9567535620102,-14.588191819301741 A 59.9245758336409 59.9245758336409 0 0 1 78.57072586344108,-13.814496351948945 L 77.23365492983176,-11.128934712645709 L 85.05988151075019,-11.142257780077726 L 80.3534871082535,-17.39524520435326 L 79.01641617464418,-14.709683565050023 A 60.9245758336409 60.9245758336409 0 0 0 77.37551047770775,-15.496290187076667"/><text text-anchor="middle" pointer-events="none" font-size="8px" fill="#000000" x="50.00052391916094" y="-17.566650007390898" transform="rotate(180 50.00052391916094 -20.566650007390898)" font-family="sans-serif">PublicTrans…</text></g></g><g class="layer nodes"><g class="node" transform="translate(133.63815898327994,8.622011308923632)"><circle class="outline" cx="0" cy="0" r="25" fill="#F16667" stroke="#eb2728" stroke-width="2px"/><text text-anchor="middle" pointer-events="none" font-family="sans-serif" dy="1.5625" font-size="25" fill="#FFFFFF"/><text text-anchor="middle" pointer-events="none" x="0" y="5" font-size="10px" fill="#FFFFFF" font-family="sans-serif"> Darjeeling</text></g><g class="node" transform="translate(127.83274517736707,193.21334672829954)"><circle class="outline" cx="0" cy="0" r="25" fill="#8DCC93" stroke="#5db665" stroke-width="2px"/><text text-anchor="middle" pointer-events="none" font-family="sans-serif" dy="1.5625" font-size="25" fill="#2A2C34"/><text text-anchor="middle" pointer-events="none" x="0" y="5" font-size="10px" fill="#2A2C34" font-family="sans-serif"> Sandak…</text></g><g class="node" transform="translate(32.31326226644899,44.3504978893055)"><circle class="outline" cx="0" cy="0" r="25" fill="#F16667" stroke="#eb2728" stroke-width="2px"/><text text-anchor="middle" pointer-events="none" font-family="sans-serif" dy="1.5625" font-size="25" fill="#FFFFFF"/><text text-anchor="middle" pointer-events="none" x="0" y="5" font-size="10px" fill="#FFFFFF" font-family="sans-serif"> Rimbik</text></g><g class="node" transform="translate(29.049420422194913,151.00821946544443)"><circle class="outline" cx="0" cy="0" r="25" fill="#D9C8AE" stroke="#c0a378" stroke-width="2px"/><text text-anchor="middle" pointer-events="none" font-family="sans-serif" dy="1.5625" font-size="25" fill="#2A2C34"/><text text-anchor="middle" pointer-events="none" x="0" y="5" font-size="10px" fill="#2A2C34" font-family="sans-serif"> BhikeBh…</text></g></g></svg>