<svg xmlns="http://www.w3.org/2000/svg" width="289.145751953125" height="267.9568786621094" viewBox="-47.00462341308594 -33.339717864990234 289.145751953125 267.9568786621094"><title>Neo4j Graph Visualization</title><desc>Created using Neo4j (http://www.neo4j.com/)</desc><g class="layer relationships"><g class="relationship" transform="translate(213.14118026672725 110.97955285244097) rotate(238.13665434358165)"><path class="outline" fill="#A5ABB6" stroke="none" d="M 25 0.5 L 25.87260053144017 0.5 L 25.87260053144017 -0.5 L 25 -0.5 Z M 74.54447553144017 0.5 L 75.41707606288034 0.5 L 75.41707606288034 3.5 L 82.41707606288034 0 L 75.41707606288034 -3.5 L 75.41707606288034 -0.5 L 74.54447553144017 -0.5 Z"/><text text-anchor="middle" pointer-events="none" font-size="8px" fill="#000000" x="50.20853803144017" y="3" transform="rotate(180 50.20853803144017 0)" font-family="sans-serif">DESTINA…</text></g><g class="relationship" transform="translate(213.14118026672725 110.97955285244097) rotate(479.0508704699445)"><path class="outline" fill="#A5ABB6" stroke="none" d="M 25 0.5 L 33.40615481030562 0.5 L 33.40615481030562 -0.5 L 25 -0.5 Z M 67.85146731030562 0.5 L 76.25762212061125 0.5 L 76.25762212061125 3.5 L 83.25762212061125 0 L 76.25762212061125 -3.5 L 76.25762212061125 -0.5 L 67.85146731030562 -0.5 Z"/><text text-anchor="middle" pointer-events="none" font-size="8px" fill="#000000" x="50.62881106030562" y="3" transform="rotate(180 50.62881106030562 0)" font-family="sans-serif">ORIGIN</text></g><g class="relationship" transform="translate(52.46131027712754 -4.339719237216428) rotate(490.2946261770493)"><path class="outline" fill="#A5ABB6" stroke="none" d="M 25 0.5 L 26.643687072363605 0.5 L 26.643687072363605 -0.5 L 25 -0.5 Z M 75.3155620723636 0.5 L 76.95924914472721 0.5 L 76.95924914472721 3.5 L 83.95924914472721 0 L 76.95924914472721 -3.5 L 76.95924914472721 -0.5 L 75.3155620723636 -0.5 Z"/><text text-anchor="middle" pointer-events="none" font-size="8px" fill="#000000" x="50.979624572363605" y="3" transform="rotate(180 50.979624572363605 0)" font-family="sans-serif">DESTINA…</text></g><g class="relationship" transform="translate(52.46131027712754 -4.339719237216428) rotate(373.04415738625784)"><path class="outline" fill="#A5ABB6" stroke="none" d="M 25 0.5 L 32.6417990065223 0.5 L 32.6417990065223 -0.5 L 25 -0.5 Z M 67.08711150652229 0.5 L 74.7289105130446 0.5 L 74.7289105130446 3.5 L 81.7289105130446 0 L 74.7289105130446 -3.5 L 74.7289105130446 -0.5 L 67.08711150652229 -0.5 Z"/><text text-anchor="middle" pointer-events="none" font-size="8px" fill="#000000" x="49.8644552565223" y="3" font-family="sans-serif">ORIGIN</text></g></g><g class="layer nodes"><g class="node" transform="translate(160.57279820298714,205.6171666981509)"><circle class="outline" cx="0" cy="0" r="25" fill="#ECB5C9" stroke="#da7298" stroke-width="2px"/><text text-anchor="middle" pointer-events="none" font-family="sans-serif" dy="1.5625" font-size="25" fill="#2A2C34"/><text text-anchor="middle" pointer-events="none" x="0" y="5" font-size="10px" fill="#2A2C34" font-family="sans-serif"> MSN</text></g><g class="node" transform="translate(213.14118026672725,110.97955285244097)"><circle class="outline" cx="0" cy="0" r="25" fill="#FFC454" stroke="#d7a013" stroke-width="2px"/><text text-anchor="middle" pointer-events="none" font-family="sans-serif" dy="1.5625" font-size="25" fill="#2A2C34"/><text text-anchor="middle" pointer-events="none" x="0" y="5" font-size="10px" fill="#2A2C34" font-family="sans-serif"> 11/30/20…</text></g><g class="node" transform="translate(156.43623147562698,19.749201474748048)"><circle class="outline" cx="0" cy="0" r="25" fill="#ECB5C9" stroke="#da7298" stroke-width="2px"/><text text-anchor="middle" pointer-events="none" font-family="sans-serif" dy="1.5625" font-size="25" fill="#2A2C34"/><text text-anchor="middle" pointer-events="none" x="0" y="5" font-size="10px" fill="#2A2C34" font-family="sans-serif"> ORD</text></g><g class="node" transform="translate(52.46131027712754,-4.339719237216428)"><circle class="outline" cx="0" cy="0" r="25" fill="#FFC454" stroke="#d7a013" stroke-width="2px"/><text text-anchor="middle" pointer-events="none" font-family="sans-serif" dy="1.5625" font-size="25" fill="#2A2C34"/><text text-anchor="middle" pointer-events="none" x="0" y="5" font-size="10px" fill="#2A2C34" font-family="sans-serif"> 11/17/20…</text></g><g class="node" transform="translate(-18.00462414045098,78.76665874209547)"><circle class="outline" cx="0" cy="0" r="25" fill="#ECB5C9" stroke="#da7298" stroke-width="2px"/><text text-anchor="middle" pointer-events="none" font-family="sans-serif" dy="1.5625" font-size="25" fill="#2A2C34"/><text text-anchor="middle" pointer-events="none" x="0" y="5" font-size="10px" fill="#2A2C34" font-family="sans-serif"> GRR</text></g></g></svg>